<svg xmlns="http://www.w3.org/2000/svg">
<defs>
<font id="UTMCancel" horiz-adv-x="1175" >
  <font-face 
    font-family="UTM Cancel"
    font-weight="400"
    font-stretch="normal"
    units-per-em="2048"
    panose-1="2 4 6 3 5 5 6 2 2 4"
    ascent="1638"
    descent="-410"
    x-height="1061"
    cap-height="1475"
    bbox="-55 -512 4942 2045"
    underline-thickness="109"
    underline-position="-359"
    unicode-range="U+0020-2026"
  />
<missing-glyph horiz-adv-x="5040" 
d="M3351 2045h10q37 -10 37 -52q0 -12 -32 -57h-28q0 24 28 54l2 10q-5 13 -10 15h-9q-8 0 -10 -19h-30q6 49 42 49zM2019 2016l29 -31q0 -16 -40 -30h-19l-59 12l-11 -12l-28 25q11 29 43 29h11l42 -11h2q10 0 30 18zM468 1980h142v-60h-94v-75h89v-59h-89v-129l-5 -5h-49
v323zM1155 1980h43l6 -5v-78h30v-52h-30v-188l-6 -5h-49v193h-25v52h25v78zM1621 1980h42l4 -5v-94h3q23 24 54 24h2q58 0 83 -71l2 -39v-143h-52v115q0 80 -42 80h-7q-43 0 -43 -86v-109h-51v323zM2200 1980h49l5 -5v-222q10 -51 45 -51q44 7 44 59v214l5 5h49v-216
q0 -85 -66 -112q-15 -8 -35 -8q-47 0 -82 55q-14 24 -14 57v224zM2435 1980h159v-60h-56v-268h-53v268h-55v55zM2621 1980h71q7 -4 83 -251h2l80 251h73v-328h-54v242h-2l-74 -242h-44q-4 0 -58 182l-19 60h-3v-242h-55v328zM3760 1980h52v-328h-45l-5 5v11l3 2l-3 14
q-29 -40 -78 -40q-67 0 -100 91l-5 39v3q0 94 92 125l23 3q35 0 63 -32h3v107zM2057 1928h36l4 -6v-49h-45v-221h-48v23q-23 -31 -59 -31q-89 14 -89 97v156h51v-104q0 -79 26 -86l18 -5h6q26 0 39 36l3 26v133h53v25zM3476 1928v-55h-31v-221h-47v25h-2q-15 -33 -57 -33
q-68 0 -86 78l-3 29v146h52v-120q0 -50 19 -68l21 -7h9q42 0 42 69v126h27q4 0 4 28l3 3h49zM758 1905q68 0 103 -77q9 -18 12 -54q0 -88 -90 -127l-32 -3q-63 0 -101 73q-12 22 -12 52v10q0 94 101 126h19zM1011 1905h3q74 0 83 -101v-152h-51v119q0 76 -42 76h-5
q-44 0 -44 -76v-119h-52v245h46v-21q30 29 62 29zM1466 1905h7q72 0 105 -89h-60q-16 31 -42 31h-17q-53 -14 -53 -61l-3 -15q12 -69 61 -69h9q22 0 47 27h40l2 3h3l2 -3l2 3l3 -3l2 3l2 -7q-33 -81 -110 -81q-76 0 -110 94l-4 36v3q0 85 77 120q15 8 37 8zM3141 1905h2

<glyph glyph-name=".notdef" horiz-adv-x="5040" 
d="M3351 2045h10q37 -10 37 -52q0 -12 -32 -57h-28q0 24 28 54l2 10q-5 13 -10 15h-9q-8 0 -10 -19h-30q6 49 42 49zM2019 2016l29 -31q0 -16 -40 -30h-19l-59 12l-11 -12l-28 25q11 29 43 29h11l42 -11h2q10 0 30 18zM468 1980h142v-60h-94v-75h89v-59h-89v-129l-5 -5h-49
v323zM1155 1980h43l6 -5v-78h30v-52h-30v-188l-6 -5h-49v193h-25v52h25v78zM1621 1980h42l4 -5v-94h3q23 24 54 24h2q58 0 83 -71l2 -39v-143h-52v115q0 80 -42 80h-7q-43 0 -43 -86v-109h-51v323zM2200 1980h49l5 -5v-222q10 -51 45 -51q44 7 44 59v214l5 5h49v-216
q0 -85 -66 -112q-15 -8 -35 -8q-47 0 -82 55q-14 24 -14 57v224zM2435 1980h159v-60h-56v-268h-53v268h-55v55zM2621 1980h71q7 -4 83 -251h2l80 251h73v-328h-54v242h-2l-74 -242h-44q-4 0 -58 182l-19 60h-3v-242h-55v328zM3760 1980h52v-328h-45l-5 5v11l3 2l-3 14
q-29 -40 -78 -40q-67 0 -100 91l-5 39v3q0 94 92 125l23 3q35 0 63 -32h3v107zM2057 1928h36l4 -6v-49h-45v-221h-48v23q-23 -31 -59 -31q-89 14 -89 97v156h51v-104q0 -79 26 -86l18 -5h6q26 0 39 36l3 26v133h53v25zM3476 1928v-55h-31v-221h-47v25h-2q-15 -33 -57 -33
q-68 0 -86 78l-3 29v146h52v-120q0 -50 19 -68l21 -7h9q42 0 42 69v126h27q4 0 4 28l3 3h49zM758 1905q68 0 103 -77q9 -18 12 -54q0 -88 -90 -127l-32 -3q-63 0 -101 73q-12 22 -12 52v10q0 94 101 126h19zM1011 1905h3q74 0 83 -101v-152h-51v119q0 76 -42 76h-5
q-44 0 -44 -76v-119h-52v245h46v-21q30 29 62 29zM1466 1905h7q72 0 105 -89h-60q-16 31 -42 31h-17q-53 -14 -53 -61l-3 -15q12 -69 61 -69h9q22 0 47 27h40l2 3h3l2 -3l2 3l3 -3l2 3l2 -7q-33 -81 -110 -81q-76 0 -110 94l-4 36v3q0 85 77 120q15 8 37 8zM3141 1905h2
q49 0 70 -60v-14h-52q0 16 -16 16h-4q-14 0 -19 -13v-13q0 -9 68 -35q30 -19 30 -59q0 -58 -61 -80l-23 -3q-76 12 -76 83h54q0 -20 27 -25h4q19 0 24 23q0 22 -68 44q-34 27 -34 59q0 66 74 77zM4203 1905q55 0 77 -63q7 -18 7 -65v-125h-52v112q0 83 -40 83h-11
q-33 0 -40 -54v-141h-52v5h-2l2 2v238h47v-21q25 29 64 29zM4432 1905h5q40 0 69 -40v18l-3 3l3 11h47v-208q0 -97 -85 -132l-33 -4h-7q-70 0 -104 80h59q24 -22 45 -23h13q22 0 43 22q15 13 22 52h-3q-32 -40 -73 -40q-57 0 -96 70q-10 18 -14 63q0 88 87 125zM3851 1897
h53v-136q6 -59 40 -59h7q46 0 46 93v102h51v-245h-47l-3 10h3l-3 3v5l3 2v3h-4q0 -23 -57 -31h-3q-59 0 -84 75l-2 85v93zM690 1771q10 -69 63 -69h7q59 14 59 65v15q-13 65 -59 65h-5q-58 0 -65 -76zM3630 1774q13 -72 61 -72h5q58 0 66 75q0 49 -51 70h-22q-37 0 -56 -57z
M4374 1774q8 -72 65 -72h5q59 12 59 72q0 61 -59 73h-14q-56 -16 -56 -62v-11zM3928 1620h52v-57h-52v57zM1054 1402q43 -11 43 -49v-4q0 -17 -32 -60h-28q0 25 31 57v7q0 12 -7 15h-12q-10 -4 -10 -19h-28v6q0 32 33 44zM3349 1339q92 0 138 -99h-60q-37 42 -80 42
q-55 0 -87 -68q-10 -22 -10 -47q0 -78 81 -110l18 -1q36 0 75 39h61q-44 -97 -138 -97q-93 0 -141 112q-10 31 -10 62q0 97 90 152q29 15 63 15zM3664 1339q57 0 103 -47q46 -51 46 -115v-20q0 -89 -91 -146q-33 -13 -63 -13q-89 0 -138 101q-13 33 -13 60v18q0 98 98 151
q29 11 58 11zM2261 1337h2l47 -11h3q11 0 26 11l18 -36q-18 -19 -35 -19h-3l-54 10l-20 -7l-20 36q18 16 36 16zM716 1334h19q118 0 129 -26q25 -26 25 -62q-10 -57 -30 -57v-6q47 -23 47 -66v-18q0 -63 -69 -88l-54 -5h-67v328zM2550 1334h53v-217q6 -61 45 -61q29 0 44 39
l3 30v203l4 6h45l5 -6v-171q0 -118 -40 -133q-24 -26 -64 -26q-55 0 -91 76l-4 54v206zM2805 1334h59q4 0 122 -237h4v237h50l4 -6v-322h-58q-29 48 -125 238h-3v-238h-53v328zM3101 1334h54v-328h-54v328zM3859 1334h8q155 0 174 -40q23 -11 47 -75l4 -36v-11l3 -2
q0 -94 -82 -149q-35 -15 -99 -15h-55v328zM4141 1334h153v-60h-103v-75h101v-57h-101v-74l4 -5h99v-57h-157v322zM3563 1175v-10q0 -76 79 -108l19 -1q68 0 96 86l3 20v15q0 61 -60 94q-12 8 -39 11q-66 0 -96 -83zM770 1274v-67h9q54 0 54 28l3 14q-11 25 -29 25h-37z
M3912 1274v-206l2 -3v-2q104 0 122 76l2 15v29q0 34 -32 68q-25 23 -78 23h-16zM1041 1259h5q38 0 71 -40v32h49v-245h-49v32q-36 -40 -80 -40q-75 0 -101 97l-5 36q0 89 85 125zM1314 1259h3q74 0 83 -102v-151h-51v128q0 67 -42 67h-10q-34 0 -39 -62v-133h-52v245h47v-21
q28 29 61 29zM1543 1259h5q45 0 71 -40v32h47v-219q0 -95 -104 -126h-16q-74 0 -108 82h59q26 -25 44 -25h14q52 0 64 77q-33 -42 -76 -42q-60 0 -101 81l-7 44v16q0 79 85 117zM1912 1259h2q43 0 61 -37h2q32 37 69 37h4q57 0 79 -55q8 -25 8 -45v-153h-52v138q0 44 -23 55
l-12 2h-15q-32 0 -36 -65v-130h-52v136q0 59 -43 59h-8q-32 0 -36 -57v-138h-54v245h50v-21h2q6 24 54 29zM2282 1259q47 0 75 -42v34h47v-245h-47v32q-36 -40 -78 -40q-74 0 -102 92l-6 41q0 90 85 125zM985 1117q0 -48 61 -61h4q45 0 62 46l3 15v22q-12 62 -57 62h-14
q-41 0 -59 -57v-27zM1487 1128q0 -48 43 -68l18 -4h5q47 0 63 57v23q-11 65 -58 65h-12q-50 0 -59 -73zM2225 1131v-14q15 -61 57 -61h14q58 12 58 64v11q0 45 -37 65l-18 5h-10q-64 -8 -64 -70zM770 1150v-82q0 -5 7 -5q77 0 77 45q0 34 -47 42h-37zM2966 753l24 -28
l-51 -55q-18 12 -27 26zM1524 727l85 -54q0 -15 -21 -42l-87 54q18 41 23 42zM2850 693h38l55 -60h-54l-21 26l-23 -26h-54q54 60 59 60zM3422 693h40l56 -60h-54l-24 26h-1q0 -5 -19 -26h-54zM622 685h52q8 -4 47 -137l34 -110q9 8 34 100l48 147h54v-2l-112 -326h-44z
M1159 685h51v-54h-51v54zM1354 685h46l6 -5v-323h-52v328zM2317 685h45l4 -5v-78h31v-52h-31v-193h-53v193h-26v52h26v78zM2425 685h52v-98h2q23 23 54 23h3q57 0 81 -71l3 -38v-144h-52v115q0 81 -39 81h-10q-42 0 -42 -87v-109h-52v328zM2664 685h52v-54h-52v54zM3028 685
h44l6 -5v-78h29v-52h-29v-193h-54v193h-27v52h27v78zM3234 685h52v-328h-52v328zM3957 685h52v-328h-52v328zM4316 685h51v-54h-51v54zM1555 610h5q83 0 110 -102l3 -23v-11q0 -83 -85 -120l-35 -5q-76 0 -111 97l-4 32q0 97 93 130zM1811 610h4q53 0 78 -60q7 -25 7 -81
v-112h-54v146q-7 50 -37 50h-10q-38 0 -42 -57v-139h-54v245h49v-21q26 29 59 29zM2046 610h4q45 0 63 -39h3v31h49v-206q0 -102 -89 -135l-28 -3h-5q-73 0 -106 81h52l37 -20l15 -3h14q50 0 61 72q-33 -39 -73 -39q-62 0 -98 76q-11 23 -12 60q0 85 86 123zM2866 610h2
q82 0 111 -104l2 -25l-2 -27h-172q15 -45 45 -45l14 -3q29 0 49 22h57v-3q-35 -76 -108 -76q-77 0 -111 97l-1 28v8q0 49 32 89q34 39 82 39zM3429 610h5q41 0 70 -39h2v31h47v-245h-47v31h-2q-35 -39 -77 -39q-71 0 -101 89l-5 36v14q0 86 84 120zM3711 610h7
q88 0 107 -128l-2 -1v-15q0 -65 -66 -106q-21 -11 -46 -11q-34 0 -64 32v-99l-5 -5h-49v325h49v-28q31 36 69 36zM4151 610q44 0 75 -39v31h49v-245h-49v31q-35 -39 -77 -39q-92 0 -108 132q0 84 73 121q15 8 37 8zM922 602h50v-136q3 -60 42 -60h5q44 0 44 87v109h52v-245
h-47v24h-5q0 -23 -56 -32h-3q-55 0 -82 68q-4 35 -4 99v81zM1159 602h51v-245h-51v245zM2664 602h52v-245h-52v245zM4316 602h51v-245h-51v245zM1492 488v-16q13 -66 59 -66h4q59 0 66 76q-13 71 -59 71h-11q-59 -16 -59 -65zM1987 472q15 -66 59 -66h11q48 0 59 75v1
q-13 71 -59 71h-14q-39 0 -56 -57v-24zM2805 506h122v2q-16 45 -59 45h-7q-35 0 -56 -47zM3373 474q13 -68 61 -68h5q52 0 65 63v12q-10 72 -57 72h-16q-56 -14 -56 -63zM3642 478q12 -72 61 -72h3q50 0 65 60v22q0 43 -49 65h-22q-47 0 -58 -72v-3zM4095 472q10 -66 66 -66
q43 0 61 48l2 15v16q0 54 -52 68h-18q-42 0 -59 -60v-21zM3416 321h51v-52h-51v52zM4137 321h51v-52h-51v52zM2733 133h4q35 0 43 -50v-2q0 -16 -24 -41l-10 -17h-28q0 25 28 56l3 2v2q-3 19 -9 19h-10q-8 0 -9 -19h-30q6 50 42 50zM1546 116l52 -60l-26 -19l-52 52zM352 79
h4q75 -48 85 -60l-20 -37q-88 49 -88 58zM3490 79l86 -58l-18 -39q-10 0 -91 55q15 36 23 42zM4578 76l19 -42l-91 -52l-20 39l92 58v-3zM1204 53h51v-19l5 -5h14v-36h-14l-5 -5v-279h-46v31q-34 -40 -81 -40q-72 0 -102 105l-3 26q0 102 101 131h14q33 0 66 -33v59l-6 5
h-43v36h49v24zM1480 45h40l56 -61h-53l-23 27l-23 -27h-53zM2641 45h33q12 0 63 -61h-54l-23 27q-19 -21 -19 -27h-58v4zM49 37h160v-60h-56v-268h-50l-4 5v245l2 3v2l-2 2l2 3l-2 2l2 3l-2 3h-54v54zM699 37h47v-73l2 -2l-2 -3v-3l2 -2l-2 -3v-3l2 -2v-2l-2 -3l2 -3h3
q17 24 51 24h3q53 0 77 -58q7 -17 7 -42v-153h-52v127q0 68 -40 68h-8q-43 0 -43 -86v-109h-52v322zM1297 37h47l5 -6v-49h-52v55zM1987 37h52v-198l70 115h62l-78 -118l90 -125v-2h-70q-10 22 -74 115v-115h-52v328zM2271 37v-99q24 24 53 24q57 0 80 -56q10 -19 10 -77
v-120h-54v133q0 62 -41 62h-11q-31 0 -37 -55v-140h-53v314l-1 3v3l1 2l-1 3l1 3h53zM2458 37h51v-55h-51v55zM3148 37h51v-108q27 33 68 33h3q75 0 105 -94l5 -37q0 -75 -64 -120q-30 -11 -49 -11q-41 0 -72 40v-31h-47v328zM4275 37h52v-99h2q23 24 54 24h3q60 0 82 -74
l2 -41v-138h-52v111q0 82 -32 82l-10 2h-12q-37 0 -37 -80v-115h-52v328zM329 -38h3v-58h-5q-42 0 -42 -57v-138h-53v245h47v-21q18 29 50 29zM564 -38q71 0 86 -87v-166h-51v136q-6 59 -41 59h-6q-45 0 -45 -84v-111h-52v245h50v-21q25 29 59 29zM1504 -38q72 0 105 -94
l5 -39q-2 -24 -7 -24h-169q17 -47 62 -47q24 0 48 21h57q-33 -79 -108 -79q-82 0 -113 105v37q0 81 89 117zM2657 -38h5q77 0 107 -97l3 -26v-21l-3 -13h-170q18 -47 53 -47h12q21 0 42 21h59q-34 -79 -105 -79q-84 0 -115 102l-2 29q0 93 91 128zM2915 -38h4q54 0 78 -60
q7 -25 7 -82v-111h-54v138q0 48 -35 57h-11q-38 0 -43 -57v-138h-54v245h50v-21q25 29 58 29zM3508 -38h6q40 0 70 -40h2v32h47v-245h-47v31h-2q-34 -40 -78 -40q-71 0 -101 90l-4 37v12q0 82 77 117q11 6 30 6zM3781 -38h4q62 0 82 -78l3 -84v-91h-54v138q0 48 -38 57h-9
q-38 0 -42 -52v-143h-54v245h49v-21q26 29 59 29zM4133 -38h1q74 0 104 -93l4 -40q0 -88 -84 -126l-25 -3q-41 0 -68 34v-106h-52v326h47v-29q30 37 73 37zM4714 -38h5q34 0 63 -37q27 37 69 37h6q56 0 79 -66l6 -51v-136h-52v122q0 73 -39 73h-7q-35 0 -41 -50v-140l-5 -5
h-48v140q0 42 -31 55h-17q-40 0 -40 -77v-118h-51v245h47v-21q22 29 56 29zM359 -46h49l5 -6v-234l-5 -5h-49v245zM1297 -46h52v-245h-52v245zM1649 -46h52v-136q4 -60 43 -60h4q44 0 44 81v115h52v-245h-47v24h-5q-12 -33 -59 -33q-52 0 -79 63q-5 12 -5 34v157zM2458 -46
h51v-245h-51v245zM4515 -46h51v-245h-51v245zM1077 -169q0 -53 51 -73h12q54 0 66 66v10q0 53 -54 70h-17q-38 0 -58 -57v-16zM1438 -143h122q-18 47 -53 47h-7q-43 0 -62 -44v-3zM2599 -143h122q-21 47 -54 47h-7q-46 0 -61 -47zM3196 -158v-11q10 -73 61 -73h5q64 8 64 71
v5q0 45 -38 65l-18 5h-14q-60 -14 -60 -62zM3452 -173q14 -69 62 -69h11q41 0 59 60v13q-8 73 -56 73h-17q-47 0 -59 -73v-4zM4062 -158v-22q0 -47 59 -62h9q50 0 61 76q-13 70 -58 70h-15q-56 -17 -56 -62z" />
    <glyph glyph-name=".null" horiz-adv-x="0" 
 />
    <glyph glyph-name="nonmarkingreturn" horiz-adv-x="571" 
 />
    <glyph glyph-name="space" unicode=" " horiz-adv-x="410" 
 />
    <glyph glyph-name="exclam" unicode="!" horiz-adv-x="606" 
d="M124 373h356v-373h-356v373zM124 1475h356v-1008h-356v1008z" />
    <glyph glyph-name="quotedbl" unicode="&#x22;" horiz-adv-x="833" 
d="M481 1475h319v-717h-319v717zM32 1475h319v-717h-319v717z" />
    <glyph glyph-name="numbersign" unicode="#" horiz-adv-x="1097" 
d="M631 797h-135l-29 -197h135zM45 600h168l29 197h-136v241h168l50 359h253l-49 -359h135l50 359h254l-50 -359h136v-241h-168l-29 -197h135v-242h-168l-49 -358h-254l49 358h-135l-49 -358h-254l49 358h-135v242z" />
    <glyph glyph-name="dollar" unicode="$" horiz-adv-x="1097" 
d="M428 -29q-133 23 -227.5 72t-170.5 145l181 283q30 -47 85.5 -89t131.5 -63v207q-80 11 -155 41.5t-133 85t-93 132t-35 178.5q0 86 22.5 162.5t71.5 141t129 106.5t193 52v111h254v-111q116 -28 188 -70t154 -130l-168 -277q-37 56 -87 88.5t-87 40.5v-248
q90 -18 157.5 -44.5t124 -72.5t89 -120t32.5 -180q0 -189 -107.5 -303.5t-295.5 -137.5v-114h-254v114zM428 1098q-62 -6 -91.5 -38t-29.5 -81t33.5 -71.5t87.5 -37.5v228zM682 307q49 2 78.5 25.5t29.5 66.5q0 29 -14 49.5t-34.5 30.5t-38 14.5t-21.5 4.5v-191z" />
    <glyph glyph-name="percent" unicode="%" horiz-adv-x="1517" 
d="M358 774q27 0 44 25.5t24.5 61.5t9.5 68t2 62q0 31 -2 61.5t-9.5 68.5t-24.5 62.5t-44 24.5t-44 -25.5t-24.5 -61.5t-9.5 -67.5t-2 -62.5q0 -30 2 -61t9.5 -69t24.5 -62.5t44 -24.5zM890 1425h156l-418 -1454h-155zM1159 188q26 0 43.5 26t25 61.5t9.5 67.5t2 63
q0 30 -2 61t-9.5 68.5t-25 62.5t-43.5 25q-27 0 -44.5 -26t-24.5 -61.5t-9 -67.5t-2 -62q0 -31 2 -62t9 -68.5t24.5 -62.5t44.5 -25zM358 557q-131 0 -214 124t-83 310q0 187 83 310.5t214 123.5t214 -123.5t83 -310.5q0 -186 -83 -310t-214 -124zM1159 -29q-131 0 -214 124
t-83 311q0 186 83 310t214 124t214 -124t83 -310q0 -187 -83 -311t-214 -124z" />
    <glyph glyph-name="ampersand" unicode="&#x26;" horiz-adv-x="1327" 
d="M860 696l221 224l230 -248l-219 -232l192 -213l-242 -252l-200 224q-107 -103 -198 -163.5t-202 -60.5q-75 0 -148 31t-129 86t-89 125t-33 143q0 99 43 165.5t143 166.5l9 8l88 88l-41 54q-52 65 -79.5 128.5t-27.5 149.5q0 88 34 162t94.5 125t138 77.5t163.5 26.5
q174 0 277.5 -98t103.5 -256q0 -117 -58.5 -195.5t-154.5 -160.5l-6 -4zM522 559l-114 -113q-17 -16 -17 -51q0 -22 18.5 -42.5t53.5 -20.5q18 0 31.5 6t27.5 20l99 93zM594 1004q41 32 64.5 63t23.5 80q0 43 -28.5 64.5t-59.5 21.5q-39 0 -67.5 -26.5t-28.5 -67.5
q0 -35 30.5 -71t65.5 -64z" />
    <glyph glyph-name="quotesingle" unicode="'" horiz-adv-x="495" 
d="M88 1475h319v-717h-319v717z" />
    <glyph glyph-name="parenleft" unicode="(" horiz-adv-x="720" 
d="M735 1442q-76 -119 -128 -213t-91 -193.5t-60.5 -208t-21.5 -231.5q0 -229 73 -408.5t228 -392.5l-340 -139q-151 197 -230 440.5t-79 499.5q0 133 19.5 254t55.5 230.5t86 217t122 238.5z" />
    <glyph glyph-name="parenright" unicode=")" horiz-adv-x="720" 
d="M353 1536q71 -131 121.5 -237.5t86 -217t55 -231.5t19.5 -254q0 -256 -77.5 -499.5t-231.5 -440.5l-340 139q156 213 228.5 392.5t72.5 408.5q0 123 -21.5 231.5t-60.5 208t-91 193.5t-128 213z" />
    <glyph glyph-name="asterisk" unicode="*" horiz-adv-x="569" 
d="M77 1397l107 -62v140h205v-140l110 64l51 -187l-141 -43l105 -108l-160 -103l-70 115l-84 -115l-145 103l90 108l-127 43z" />
    <glyph glyph-name="plus" unicode="+" horiz-adv-x="1228" 
d="M475 1036h278v-379h379v-278h-379v-379h-278v379h-379v278h379v379z" />
    <glyph glyph-name="comma" unicode="," horiz-adv-x="548" 
d="M530 373l-193 -717h-319l172 717h340z" />
    <glyph glyph-name="hyphen" unicode="-" horiz-adv-x="684" 
d="M86 717h512v-340h-512v340z" />
    <glyph glyph-name="hyphen" unicode="&#x2010;" horiz-adv-x="684" 
d="M86 717h512v-340h-512v340z" />
    <glyph glyph-name="period" unicode="." horiz-adv-x="548" 
d="M279 -5q-79 0 -134 53.5t-55 128.5t55 126.5t134 51.5q78 0 135 -51.5t57 -126.5t-57 -128.5t-135 -53.5z" />
    <glyph glyph-name="slash" unicode="/" horiz-adv-x="569" 
d="M187 -37h-242l438 1548h242z" />
    <glyph glyph-name="zero" unicode="0" horiz-adv-x="1097" 
d="M549 344q47 0 75.5 44t42 106.5t16.5 112.5t3 93q0 41 -3 91.5t-15.5 112t-42 105.5t-76.5 44q-48 0 -76.5 -43t-42 -105.5t-16.5 -113t-3 -91.5q0 -43 3 -93t16.5 -112.5t42 -106.5t76.5 -44zM55 698q0 181 39 318t107.5 228t157.5 136t190 45q100 0 189 -45t157.5 -136
t107.5 -228t39 -318q0 -178 -39 -316t-107.5 -229.5t-157.5 -136.5t-189 -45q-101 0 -190 45t-157.5 136.5t-107.5 229.5t-39 316z" />
    <glyph glyph-name="one" unicode="1" horiz-adv-x="720" 
d="M606 0h-357v934q-32 -25 -99 -41t-130 -25v373q86 19 147.5 64t81.5 92h357v-1397z" />
    <glyph glyph-name="two" unicode="2" horiz-adv-x="1062" 
d="M343 569q-147 60 -227 149t-80 234q0 209 135 341t357 132q102 0 189 -32.5t148.5 -91t95 -133t33.5 -158.5q0 -121 -40.5 -215.5t-149.5 -257.5l-119 -181h340v-356h-971l449 647q72 103 107.5 176.5t35.5 128.5q0 64 -39 105t-98 41q-45 0 -85 -29t-40 -100
q0 -47 27.5 -84t70.5 -49z" />
    <glyph glyph-name="three" unicode="3" horiz-adv-x="909" 
d="M211 428q21 -35 67 -67.5t101 -32.5q51 0 84 31.5t33 84.5q0 41 -36 78t-124 37h-65v279q225 0 225 125q0 49 -31.5 77.5t-91.5 28.5q-47 0 -90 -25.5t-68 -60.5l-217 219q80 111 178.5 167t227.5 56q102 0 187 -32.5t142.5 -90t88 -130t30.5 -152.5q0 -92 -42 -178
t-124 -133q74 -41 120 -130.5t46 -187.5q0 -74 -25.5 -147.5t-80.5 -136t-141 -99.5t-201 -37q-131 0 -248 63.5t-172 176.5z" />
    <glyph glyph-name="four" unicode="4" horiz-adv-x="1024" 
d="M318 1397h348l-250 -776h148v346h340v-346h69v-340h-69v-281h-340v281h-584z" />
    <glyph glyph-name="five" unicode="5" horiz-adv-x="948" 
d="M129 1397h813l-137 -357h-336v-120q76 -9 139.5 -25t129 -60t108.5 -130.5t43 -221.5t-44 -234t-116 -159.5t-158 -89.5t-174 -29q-115 0 -210 48.5t-181 138.5l184 270q9 -4 29 -20q43 -37 84 -58.5t96 -21.5q51 0 92 27.5t41 90.5q0 82 -75.5 127t-174.5 45
q-34 0 -73 -9t-72 -21l-8 -2v811z" />
    <glyph glyph-name="six" unicode="6" horiz-adv-x="1097" 
d="M887 1313q-29 -35 -66 -80t-73.5 -94t-66.5 -94.5t-48 -81.5q69 0 142 -28t135.5 -85t101.5 -144.5t39 -203.5q0 -101 -34 -196t-100.5 -171t-164 -120t-220.5 -44q-84 0 -169 28t-156.5 86t-115.5 151.5t-44 216.5q0 116 45 246t118 258t153.5 241t172.5 227zM694 489
q0 60 -43 103t-102 43q-60 0 -103 -43t-43 -103q0 -59 43 -102t103 -43q59 0 102 43t43 102z" />
    <glyph glyph-name="seven" unicode="7" horiz-adv-x="985" 
d="M43 1397h942v-189l-549 -1208h-393l469 1024h-469v373z" />
    <glyph glyph-name="eight" unicode="8" horiz-adv-x="1024" 
d="M382 977q0 -53 38 -91t92 -38q53 0 91 38t38 91t-38 91t-91 38q-54 0 -92 -38t-38 -91zM63 1020q0 80 30.5 152.5t89 130t142.5 90t187 32.5q102 0 187 -32.5t142.5 -90t88 -130t30.5 -152.5q0 -94 -29.5 -174t-124.5 -144q74 -40 114 -129.5t40 -181.5
q0 -74 -25.5 -147.5t-81 -136t-141.5 -99.5t-200 -37q-115 0 -201 37t-140.5 99.5t-81 136t-26.5 147.5q0 92 40 181.5t114 129.5q-95 64 -124.5 144t-29.5 174zM382 440q0 -53 38 -91t92 -38q53 0 91 38t38 91q0 54 -38 91.5t-91 37.5q-54 0 -92 -37.5t-38 -91.5z" />
    <glyph glyph-name="nine" unicode="9" horiz-adv-x="1097" 
d="M211 84q31 35 66.5 80t72.5 94t66.5 94t48.5 82q-70 2 -142.5 30t-135 84t-101.5 144t-39 203q0 100 34 195.5t100.5 171t163.5 119.5t220 44q84 0 169 -27.5t156.5 -86t116 -151.5t44.5 -216q0 -117 -45.5 -247t-118 -258t-153.5 -240.5t-173 -227.5zM403 907
q0 -59 43 -102t103 -43q59 0 102 43t43 102q0 60 -43 103t-102 43q-60 0 -103 -43t-43 -103z" />
    <glyph glyph-name="colon" unicode=":" horiz-adv-x="548" 
d="M262 712q-79 0 -134 53.5t-55 128.5t55 126.5t134 51.5q78 0 135 -51.5t57 -126.5t-57 -128.5t-135 -53.5zM262 1q-79 0 -134 53.5t-55 128.5t55 126.5t134 51.5q78 0 135 -51.5t57 -126.5t-57 -128.5t-135 -53.5z" />
    <glyph glyph-name="semicolon" unicode=";" horiz-adv-x="548" 
d="M152 373l-172 -717h319l193 717h-340zM302 712q-79 0 -134 53.5t-55 128.5t55 126.5t134 51.5q78 0 135 -51.5t57 -126.5t-57 -128.5t-135 -53.5z" />
    <glyph glyph-name="less" unicode="&#x3c;" horiz-adv-x="1228" 
d="M1132 -16l-1036 405v258l1036 406v-271l-688 -264l688 -264v-270z" />
    <glyph glyph-name="equal" unicode="=" horiz-adv-x="1228" 
d="M1132 629h-1036v278h1036v-278zM1132 129h-1036v279h1036v-279z" />
    <glyph glyph-name="greater" unicode="&#x3e;" horiz-adv-x="1228" 
d="M96 254l688 264l-688 264v271l1036 -406v-258l-1036 -405v270z" />
    <glyph glyph-name="question" unicode="?" horiz-adv-x="757" 
d="M195 659q0 115 27.5 180.5t74.5 125.5q37 47 37 69q0 45 -22.5 62.5t-51.5 17.5q-31 0 -57.5 -26.5t-46.5 -61.5l-156 274q35 97 134 154t206 57q166 0 276.5 -104t110.5 -272q0 -84 -21.5 -138.5t-66.5 -124.5q-43 -69 -65.5 -124.5t-22.5 -139.5v-141h-356v192zM376 -4
q-79 0 -134 53.5t-55 128.5t55 126.5t134 51.5q78 0 135 -51.5t57 -126.5t-57 -128.5t-135 -53.5z" />
    <glyph glyph-name="at" unicode="@" horiz-adv-x="1638" 
d="M833 883q-67 0 -116 -55.5t-49 -129.5q0 -55 34.5 -95t87.5 -40q72 0 123.5 54.5t51.5 123.5q0 62 -38 102t-94 40zM1491 299q-217 -336 -651 -336q-166 0 -311.5 56.5t-254 160t-169 246.5t-60.5 311q0 183 61.5 328t171 244.5t256 150.5t314.5 51q147 0 281.5 -38.5
t240 -116.5t164.5 -192.5t59 -262.5q0 -160 -56 -272.5t-143 -177t-178.5 -91t-164.5 -26.5q-56 0 -91.5 24.5t-37.5 69.5h-5q-26 -43 -72 -68.5t-110 -25.5q-139 0 -224 101.5t-85 242.5q0 90 28.5 169t81 139.5t124 93t153.5 32.5q141 0 219 -108l19 75h174l-82 -438
l-2 -10q-9 -43 -9 -64q0 -20 17.5 -36.5t50.5 -16.5q72 0 118 82t46 244q0 227 -142.5 340.5t-373.5 113.5q-123 0 -228.5 -42t-183.5 -117.5t-120 -177t-42 -220.5q0 -125 44 -229.5t123 -177t181.5 -111.5t217.5 -39q141 0 238 30t179 89h234z" />
    <glyph glyph-name="A" unicode="A" horiz-adv-x="1441" 
d="M514 1475h434l496 -1475h-416l-53 164h-508l-53 -164h-416zM723 938h-4l-133 -410h274z" />
    <glyph glyph-name="B" unicode="B" 
d="M497 899h92q27 0 49.5 3t46 14.5t39 38t15.5 69.5t-16.5 68.5t-40 38t-45 14.5t-48.5 2h-92v-248zM112 1475h586q209 0 317.5 -117t108.5 -293q0 -76 -18.5 -131t-48.5 -91t-56.5 -54.5t-61.5 -36.5q-2 -2 -6 -4q2 -3 10 -7q31 -18 57.5 -37.5t58.5 -58.5t52.5 -98.5
t20.5 -134.5q0 -62 -23.5 -131.5t-77 -134t-144.5 -105.5t-220 -41h-555v1475zM497 328h98q80 0 112 43t32 94q0 72 -47.5 99.5t-108.5 27.5h-86v-264z" />
    <glyph glyph-name="C" unicode="C" horiz-adv-x="1062" 
d="M977 -12q-99 -25 -201 -25q-166 0 -301 60.5t-230.5 169t-144.5 252t-49 307.5q0 153 53 292.5t152.5 245t233.5 163.5t290 58q59 0 110.5 -4t78.5 -12l26 -448q-26 22 -84.5 36.5t-103.5 14.5q-150 0 -248 -97.5t-98 -246.5q0 -97 28.5 -168.5t77.5 -117.5t112.5 -68.5
t131.5 -22.5q55 0 109.5 13t91.5 42z" />
    <glyph glyph-name="D" unicode="D" horiz-adv-x="1214" 
d="M112 1475h350q170 0 303 -62.5t221.5 -168t132.5 -235.5t44 -264q0 -155 -53.5 -291.5t-153 -238.5t-236.5 -158.5t-303 -56.5h-305v1475zM497 414q86 12 142.5 50t84 86t36.5 98t9 102q0 59 -12 112t-42 101.5t-84 81t-134 40.5v-671z" />
    <glyph glyph-name="E" unicode="E" horiz-adv-x="1024" 
d="M112 1475h791l59 -390h-465v-153h303v-389h-303v-154h516l-100 -389h-801v1475z" />
    <glyph glyph-name="F" unicode="F" horiz-adv-x="909" 
d="M112 1475h791l59 -390h-465v-153h303v-389h-303v-543h-385v1475z" />
    <glyph glyph-name="G" unicode="G" horiz-adv-x="1441" 
d="M1140 1008q-76 55 -156 80.5t-176 25.5q-78 0 -146.5 -28.5t-120.5 -81t-81 -121t-29 -146.5t29 -146.5t81 -120.5t120.5 -81t146.5 -29q31 0 69 8.5t66 22.5v367h385v-715q-88 -37 -230 -58.5t-253 -21.5q-174 0 -321.5 50t-257 149.5t-169 245t-59.5 329.5
q0 164 57.5 305.5t165 248t257 163.5t327.5 57q53 0 119.5 -11t135 -30.5t123 -43t85.5 -46.5z" />
    <glyph glyph-name="H" unicode="H" horiz-adv-x="1290" 
d="M100 1475h385v-517h320v517h385v-1475h-385v561h-320v-561h-385v1475z" />
    <glyph glyph-name="I" unicode="I" horiz-adv-x="569" 
d="M92 1475h385v-1475h-385v1475z" />
    <glyph glyph-name="J" unicode="J" horiz-adv-x="757" 
d="M676 406q0 -132 -36 -214.5t-99.5 -123.5t-143.5 -54.5t-188 -13.5h-162v389h63q109 0 145 45t36 160v881h385v-1069z" />
    <glyph glyph-name="K" unicode="K" horiz-adv-x="1251" 
d="M112 1475h385v-652h4l303 652h432l-311 -689l326 -786h-430l-320 776h-4v-776h-385v1475z" />
    <glyph glyph-name="L" unicode="L" horiz-adv-x="1024" 
d="M112 1475h385v-1086h516l-100 -389h-801v1475z" />
    <glyph glyph-name="M" unicode="M" horiz-adv-x="1593" 
d="M229 1475h307l260 -574l269 574h307l202 -1475h-393l-86 606h-4l-295 -616l-295 616h-4l-86 -606h-393z" />
    <glyph glyph-name="N" unicode="N" horiz-adv-x="1327" 
d="M100 1475h172l569 -650v650h385v-1475h-184l-557 627v-627h-385v1475z" />
    <glyph glyph-name="O" unicode="O" horiz-adv-x="1593" 
d="M1554 737q0 -157 -59.5 -298.5t-165 -249t-244 -167t-289.5 -59.5q-152 0 -290 59.5t-243.5 167t-165 249t-59.5 298.5q0 158 59.5 299.5t165 249t243.5 166.5t290 59q151 0 289.5 -59t244 -166.5t165 -249t59.5 -299.5zM1160 737q0 74 -27.5 142.5t-78.5 122t-118 83
t-140 29.5q-74 0 -140.5 -28.5t-116.5 -81t-79 -121t-29 -146.5q0 -75 29 -145t79 -122t116.5 -81t140.5 -29q73 0 140 30t118 83t78.5 122t27.5 142z" />
    <glyph glyph-name="P" unicode="P" 
d="M112 1475h508q252 0 382 -143.5t130 -403.5q0 -144 -45 -247t-128 -167.5t-199 -94.5t-263 -30v-389h-385v1475zM497 762h74q92 0 134 51t42 131t-42 131t-134 51h-74v-364z" />
    <glyph glyph-name="Q" unicode="Q" horiz-adv-x="1630" 
d="M1289 -127q-39 35 -77.5 85t-65.5 95q-68 -43 -159 -66.5t-191 -23.5q-152 0 -290 59.5t-243.5 167t-165 249t-59.5 298.5q0 158 59.5 299.5t165 249t243.5 166.5t290 59q151 0 289.5 -59t244 -166.5t165 -249t59.5 -299.5q0 -114 -33 -220.5t-92 -201.5q30 -47 75 -100
t86 -94zM1160 737q0 74 -27.5 142.5t-78.5 122t-118 83t-140 29.5q-74 0 -140.5 -28.5t-116.5 -81t-79 -121t-29 -146.5q0 -75 29 -145t79 -122t116.5 -81t140.5 -29q73 0 140 30t118 83t78.5 122t27.5 142z" />
    <glyph glyph-name="R" unicode="R" 
d="M112 1475h506q227 0 361 -122t134 -352q0 -229 -200 -362l282 -639h-434l-260 608h-4v-608h-385v1475zM497 782q113 0 172 43t59 140q0 96 -59 139t-172 43v-365z" />
    <glyph glyph-name="S" unicode="S" horiz-adv-x="872" 
d="M794 1094q-28 24 -81.5 38.5t-85.5 14.5q-66 0 -105 -28.5t-39 -90.5q0 -49 30 -84t93 -84q51 -39 84 -70.5t63.5 -75.5t50 -106.5t19.5 -144.5q0 -154 -45 -253t-124 -152.5t-177 -74t-219 -20.5q-49 0 -125 8q-43 6 -59 6l-11 408q66 -18 108 -25.5t75 -7.5
q53 0 85.5 30t32.5 83q0 47 -26.5 83t-85.5 91q-49 45 -80 78t-59.5 79t-46 108.5t-17.5 139.5q0 48 13.5 117.5t58.5 151.5t141 140t252 58q63 0 143 -8t137 -20v-389z" />
    <glyph glyph-name="T" unicode="T" horiz-adv-x="983" 
d="M37 1475h909l39 -373h-301v-1102h-385v1102h-301z" />
    <glyph glyph-name="U" unicode="U" 
d="M81 1475h385v-938q0 -82 27.5 -129.5t93.5 -47.5q65 0 93 47.5t28 129.5v938h385v-996q0 -258 -129 -387t-377 -129t-377 129t-129 387v996z" />
    <glyph glyph-name="V" unicode="V" horiz-adv-x="1251" 
d="M-2 1475h401l224 -877h4l225 877h401l-385 -1475h-499z" />
    <glyph glyph-name="W" unicode="W" horiz-adv-x="1556" 
d="M10 1475h385l84 -613h4l295 613l295 -613h4l84 613h385l-197 -1475h-307l-264 569l-264 -569h-307z" />
    <glyph glyph-name="X" unicode="X" horiz-adv-x="1290" 
d="M868 745l426 -745h-450l-199 350l-198 -350h-451l424 745l-416 730h451l190 -334l189 334h450z" />
    <glyph glyph-name="Y" unicode="Y" horiz-adv-x="1212" 
d="M0 1475h434l172 -361l172 361h434l-413 -826v-649h-385v649z" />
    <glyph glyph-name="Z" unicode="Z" horiz-adv-x="1138" 
d="M88 1475h1028l-478 -1086h476l-48 -389h-1021l477 1085h-500z" />
    <glyph glyph-name="bracketleft" unicode="[" horiz-adv-x="645" 
d="M102 1475h506v-308h-178v-1142h178v-308h-506v1758z" />
    <glyph glyph-name="backslash" unicode="\" horiz-adv-x="569" 
d="M-55 1511h242l438 -1548h-242z" />
    <glyph glyph-name="bracketright" unicode="]" horiz-adv-x="645" 
d="M542 -283h-506v308h178v1142h-178v308h506v-1758z" />
    <glyph glyph-name="asciicircum" unicode="^" horiz-adv-x="1228" 
d="M487 1397h254l355 -748h-273l-209 459l-209 -459h-272z" />
    <glyph glyph-name="underscore" unicode="_" horiz-adv-x="1024" 
d="M0 -256v102h1024v-102h-1024z" />
    <glyph glyph-name="grave" unicode="`" horiz-adv-x="532" 
d="M232 1475l135 -304h-168l-246 304h279z" />
    <glyph glyph-name="a" unicode="a" horiz-adv-x="985" 
d="M171 1047q37 2 56 4q157 10 235 10q230 0 322 -62q57 -36 84.5 -102t27.5 -170v-727h-307v78h-4q-16 -31 -76.5 -67t-152.5 -36q-140 0 -235 100.5t-95 272.5q0 146 98.5 253.5t268.5 107.5q47 0 89 -8.5t66 -20.5q0 82 -38 110.5t-154 28.5q-58 0 -94.5 -4t-92.5 -14
q-34 -4 -41 -6zM475 479q-46 0 -77.5 -31.5t-31.5 -76.5t31.5 -77t77.5 -32q45 0 76.5 32t31.5 77t-31.5 76.5t-76.5 31.5z" />
    <glyph glyph-name="b" unicode="b" horiz-adv-x="1214" 
d="M79 1475h356v-476h4q21 33 96.5 59.5t153.5 26.5q82 0 166 -30.5t156 -96t116 -170t44 -245.5q0 -152 -46.5 -262.5t-125 -177t-178 -97.5t-210.5 -31q-186 0 -298.5 59.5t-161.5 147.5t-60.5 173t-11.5 186v934zM427 530q0 -81 57.5 -139.5t137.5 -58.5t136 58.5
t56 139.5q0 82 -56 140.5t-136 58.5t-137.5 -58.5t-57.5 -140.5z" />
    <glyph glyph-name="c" unicode="c" horiz-adv-x="833" 
d="M782 698q-18 15 -71.5 23t-94.5 8q-98 0 -153.5 -48t-55.5 -144q0 -88 53.5 -146.5t168.5 -58.5q38 0 72 6t69 16l12 2v-356q-29 -10 -90 -17.5t-111 -7.5q-122 0 -222.5 43t-169 118t-103.5 173.5t-35 204.5q0 160 51 273.5t132 178t169 92t168 27.5q45 0 101.5 -7
t109.5 -23v-357z" />
    <glyph glyph-name="d" unicode="d" horiz-adv-x="1251" 
d="M399 530q0 -84 58.5 -141t142.5 -57t141.5 57t57.5 141t-57.5 141.5t-141.5 57.5t-142.5 -57.5t-58.5 -141.5zM1163 0h-356v111h-4q-35 -54 -103.5 -95t-173.5 -41q-96 0 -184 39t-155.5 110t-105.5 166t-38 206q0 272 143.5 430.5t376.5 158.5q88 0 150.5 -27.5
t93.5 -58.5v476h356v-1475z" />
    <glyph glyph-name="e" unicode="e" horiz-adv-x="1062" 
d="M1003 106h-2q-88 -53 -192.5 -92t-250.5 -39q-73 0 -162.5 27t-173.5 90.5t-137 173t-53 262.5q0 138 50 243.5t133 176t180.5 104t191.5 33.5q123 0 208 -36.5t137 -95t79 -116t47 -126.5l-534 -379q14 -10 51 -19.5t71 -9.5q86 0 181.5 46t150.5 106zM669 741
q-14 19 -50 28t-67 9q-76 0 -128 -52t-52 -144q0 -17 8 -52v-6z" />
    <glyph glyph-name="f" unicode="f" horiz-adv-x="645" 
d="M43 1061h88q2 96 11.5 161.5t47 128t121.5 101.5t226 39q49 0 104 -6v-334q-98 0 -120.5 -12.5t-33.5 -77.5h150v-307h-150v-754h-356v754h-88v307z" />
    <glyph glyph-name="g" unicode="g" horiz-adv-x="1062" 
d="M204 100q51 -59 133 -96t164 -37q59 0 98 32t39 85v49q-41 -12 -108 -12q-123 0 -215 42t-150.5 111.5t-86 152.5t-27.5 163q0 133 40.5 229t108.5 154.5t146.5 85t156.5 26.5q45 0 108.5 -5t139.5 -11q41 -4 45 -4h-2v-4h217l-106 -160q32 -27 67 -115t35 -196
q0 -82 -29.5 -153.5t-70.5 -108.5q36 -41 62 -97.5t26 -152.5q0 -80 -30 -158t-92.5 -141.5t-158.5 -101t-223 -37.5q-129 0 -243 51t-220 145zM390 602q0 -53 39 -93t93 -40q51 0 90 41t39 92q0 55 -39 95t-90 40q-54 0 -93 -40t-39 -95z" />
    <glyph glyph-name="h" unicode="h" horiz-adv-x="1099" 
d="M88 1475h356v-512q56 59 119.5 90.5t140.5 31.5q60 0 114 -16t98 -53t70 -95.5t26 -140.5v-780h-357v582q0 65 -21.5 106t-86.5 41q-60 0 -81.5 -42t-21.5 -105v-582h-356v1475z" />
    <glyph glyph-name="i" unicode="i" horiz-adv-x="532" 
d="M88 0h356v1061h-356v-1061zM256 1081q-79 0 -134 53.5t-55 128.5t55 126.5t134 51.5q78 0 135 -51.5t57 -126.5t-57 -128.5t-135 -53.5z" />
    <glyph glyph-name="j" unicode="j" horiz-adv-x="569" 
d="M125 195q0 -125 -34 -198t-85 -134l-2 -2l268 -221q76 63 119 129.5t62.5 134t23.5 134t4 171.5v852h-356v-866zM297 1082q-79 0 -134 53.5t-55 128.5t55 126.5t134 51.5q78 0 135 -51.5t57 -126.5t-57 -128.5t-135 -53.5z" />
    <glyph glyph-name="k" unicode="k" horiz-adv-x="1099" 
d="M88 1475h356v-914h4l220 500h393l-219 -502l264 -559h-410l-248 547h-4v-547h-356v1475z" />
    <glyph glyph-name="l" unicode="l" horiz-adv-x="532" 
d="M88 1475h356v-1475h-356v1475z" />
    <glyph glyph-name="m" unicode="m" horiz-adv-x="1630" 
d="M79 1061h356v-98h4q35 41 97.5 81.5t152.5 40.5q62 0 122.5 -21.5t127.5 -100.5q62 65 138.5 93.5t142.5 28.5q159 0 244 -90t85 -215v-780h-356v569q0 29 -2 50.5t-11 43t-29.5 36t-55.5 14.5q-68 0 -90 -45q-8 -17 -10.5 -37.5t-2.5 -46.5v-584h-356v569q0 29 -2 50.5
t-11 43t-29.5 36t-55.5 14.5q-68 0 -90 -45q-9 -17 -11 -37.5t-2 -46.5v-584h-356v1061z" />
    <glyph glyph-name="n" unicode="n" horiz-adv-x="1099" 
d="M88 1061h356v-98q56 59 119.5 90.5t140.5 31.5q60 0 114 -16t98 -53t70 -95.5t26 -140.5v-780h-357v582q0 65 -21.5 106t-86.5 41q-60 0 -81.5 -42t-21.5 -105v-582h-356v1061z" />
    <glyph glyph-name="o" unicode="o" 
d="M32 530q0 115 43 216.5t120 177t178 118.5t214 43q115 0 216 -43t177 -118.5t119 -177t43 -216.5q0 -112 -43 -213.5t-119 -178.5t-177 -120t-216 -43q-113 0 -214 43t-178 120t-120 178.5t-43 213.5zM388 530q0 -84 57.5 -141t141.5 -57t141.5 57t57.5 141t-57.5 141.5
t-141.5 57.5t-141.5 -57.5t-57.5 -141.5z" />
    <glyph glyph-name="p" unicode="p" horiz-adv-x="1251" 
d="M88 1061h356v-111h4q35 54 103.5 94.5t173.5 40.5q96 0 184 -37.5t155.5 -109.5t105.5 -167t38 -206q0 -272 -142 -431t-378 -159q-88 0 -150.5 28t-93.5 58v-405h-356v1405zM852 530q0 84 -58.5 141.5t-142.5 57.5t-141 -57.5t-57 -141.5t57 -141t141 -57t142.5 57
t58.5 141z" />
    <glyph glyph-name="q" unicode="q" horiz-adv-x="1251" 
d="M1163 -344h-356v405q-31 -30 -93.5 -58t-150.5 -28q-233 0 -376.5 159t-143.5 431q0 111 38 206t105.5 167t155.5 109.5t184 37.5q105 0 173.5 -40.5t103.5 -94.5h4v111h356v-1405zM399 530q0 -84 58.5 -141t142.5 -57t141.5 57t57.5 141t-57.5 141.5t-141.5 57.5
t-142.5 -57.5t-58.5 -141.5z" />
    <glyph glyph-name="r" unicode="r" horiz-adv-x="720" 
d="M88 1061h356v-107h4q33 62 84.5 84.5t145.5 22.5v-356q-139 0 -186.5 -45.5t-47.5 -145.5v-514h-356v1061z" />
    <glyph glyph-name="s" unicode="s" horiz-adv-x="681" 
d="M56 330q19 -11 46.5 -19t60.5 -8q39 0 66.5 15.5t27.5 50.5q0 22 -16.5 42.5t-52.5 55.5q-70 65 -110 130t-40 167q0 164 98.5 242.5t268.5 78.5q129 0 206 -8v-336q-55 37 -120 37q-33 0 -56.5 -19.5t-23.5 -51.5q0 -19 16.5 -40.5t52.5 -56.5q74 -73 118 -143t44 -172
q0 -156 -97 -238t-294 -82q-35 0 -78 4.5t-117 20.5v330z" />
    <glyph glyph-name="t" unicode="t" horiz-adv-x="681" 
d="M121 1192l356 205v-336h131v-307h-131v-291q0 -51 17.5 -79t87.5 -28q28 0 51 9h2l-53 -365q-142 0 -216.5 5t-131 29.5t-85 80t-28.5 153.5v486h-74v307h74v131z" />
    <glyph glyph-name="u" unicode="u" horiz-adv-x="1099" 
d="M1012 0h-357v98q-55 -59 -118.5 -91t-141.5 -32q-59 0 -113.5 16.5t-98.5 53.5t-69.5 96.5t-25.5 139.5v780h356v-582q0 -65 22.5 -106t86.5 -41q59 0 80.5 42t21.5 105v582h357v-1061z" />
    <glyph glyph-name="v" unicode="v" horiz-adv-x="946" 
d="M4 1061h373l94 -598h4l94 598h373l-244 -1061h-450z" />
    <glyph glyph-name="w" unicode="w" horiz-adv-x="1441" 
d="M4 1061h373l92 -483h4l139 483h254l107 -483h4l88 483h373l-246 -1061h-373l-108 446h-5l-102 -446h-364z" />
    <glyph glyph-name="x" unicode="x" horiz-adv-x="1024" 
d="M-14 1061h422l102 -197l86 197h422l-301 -522l322 -539h-422l-99 229l-100 -229h-422l299 539z" />
    <glyph glyph-name="y" unicode="y" horiz-adv-x="1062" 
d="M4 1061h393l152 -514h4l121 514h385l-424 -1421h-385l123 417z" />
    <glyph glyph-name="z" unicode="z" horiz-adv-x="909" 
d="M28 1061h830l-308 -705h338l-69 -356h-799l297 705h-289v356z" />
    <glyph glyph-name="braceleft" unicode="{" horiz-adv-x="645" 
d="M622 1167h-68q-43 0 -58 -38.5t-15 -94.5v-237q0 -58 -23.5 -95.5t-61.5 -60.5t-81 -32t-88 -11v-4q45 -2 88 -11.5t81 -31t61.5 -60t23.5 -96.5v-237q0 -56 15 -94.5t58 -38.5h68v-308h-197q-41 0 -89 17.5t-90 52.5t-67.5 89t-25.5 124v317q0 74 -39 99.5t-92 25.5v308
q53 0 92 25.5t39 98.5v318q0 70 25.5 124t67.5 89t90 52.5t89 17.5h197v-308z" />
    <glyph glyph-name="bar" unicode="|" horiz-adv-x="454" 
d="M88 1536h279v-2048h-279v2048z" />
    <glyph glyph-name="braceright" unicode="}" horiz-adv-x="645" 
d="M22 1475h197q41 0 89 -17.5t90 -52.5t67.5 -89t25.5 -124v-318q0 -73 39 -98.5t92 -25.5v-308q-53 0 -92 -25.5t-39 -99.5v-317q0 -70 -25.5 -124t-67.5 -89t-90 -52.5t-89 -17.5h-197v308h68q43 0 58 38.5t15 94.5v237q0 58 23.5 96.5t62.5 60t81 31t87 11.5v4
q-45 2 -88 11t-80 31t-61.5 60.5t-24.5 96.5v237q0 56 -15 94.5t-58 38.5h-68v308z" />
    <glyph glyph-name="asciitilde" unicode="~" horiz-adv-x="1228" 
d="M1087 496q-61 -86 -116.5 -131.5t-139.5 -45.5q-53 0 -98 16.5t-115 53.5q-67 37 -118.5 55.5t-112.5 18.5q-62 0 -102 -42t-70 -110l-74 230q41 77 101.5 126.5t154.5 49.5q57 0 117.5 -21.5t146.5 -62.5q66 -31 105 -45.5t67 -14.5q53 0 92 38t86 110q2 2 2 4z" />
    <glyph glyph-name="dieresis" unicode="&#xa8;" horiz-adv-x="1024" 
 />
    <glyph glyph-name="copyright" unicode="&#xa9;" horiz-adv-x="922" 
d="M974 941q0 -179 -125.5 -305.5t-304.5 -126.5q-183 0 -307.5 125t-124.5 307q0 180 125.5 306t304.5 126t305.5 -126.5t126.5 -305.5zM910 942q0 151 -108 259t-259 108q-153 0 -260.5 -107t-107.5 -260q0 -152 107.5 -260.5t260.5 -108.5t260 108t107 261zM742 780
q-82 -74 -178 -74q-102 0 -170.5 73t-68.5 175q0 100 68 173.5t168 73.5q91 0 174 -69l-55 -57q-58 58 -118 58q-73 0 -121.5 -54t-48.5 -127q0 -72 47 -125t119 -53q65 0 129 63z" />
    <glyph glyph-name="registered" unicode="&#xae;" horiz-adv-x="922" 
d="M974 941q0 -179 -125.5 -305.5t-304.5 -126.5q-183 0 -307.5 125t-124.5 307q0 180 125.5 306t304.5 126t305.5 -126.5t126.5 -305.5zM910 942q0 151 -108 259t-259 108q-153 0 -260.5 -107t-107.5 -260q0 -152 107.5 -260.5t260.5 -108.5t260 108t107 261zM701 727h-86
l-72 186h-77v-186h-67v453h153q144 0 144 -132q0 -79 -76 -119zM628 1047q0 65 -73 65h-89v-131h89q73 0 73 66z" />
    <glyph glyph-name="acute" unicode="&#xb4;" horiz-adv-x="1280" 
 />
    <glyph glyph-name="paragraph" unicode="&#xb6;" horiz-adv-x="1024" 
d="M949 1439v-78h-127v-1365h-102v1365h-146v-1365h-104v738q-170 8 -273.5 104.5t-103.5 247.5q0 157 109.5 255t293.5 98h453z" />
    <glyph glyph-name="onequarter" unicode="&#xbc;" horiz-adv-x="1303" 
d="M1237 272l-16 -127h-62v-159l-78 -27h-18v186h-277l15 138q116 244 256 358q26 8 102 16v-385h78zM1004 1044l-592 -1085h-86l596 1085h82zM369 367l-80 -27h-25l2 475q1 66 -59 66q-50 0 -92 -17l-15 23l19 90l205 51l43 -8l-5 -287q0 -101 7 -366zM1063 272v250
q-123 -106 -168 -250h168z" />
    <glyph glyph-name="onehalf" unicode="&#xbd;" horiz-adv-x="1303" 
d="M1243 102l-24 -129q-209 7 -201 7q-116 0 -195 -9l-14 11l35 129q254 176 254 342q0 106 -117 106q-68 0 -135 -47l-15 14l31 107q66 35 156 35q81 0 137 -43q64 -47 64 -129q0 -111 -95 -229q-50 -62 -166 -163q111 -6 117 -6q112 0 150 15zM963 1044l-592 -1085h-86
l596 1085h82zM369 367l-80 -27h-25l2 475q1 66 -59 66q-50 0 -92 -17l-15 23l19 90l205 51l43 -8l-5 -287q0 -101 7 -366z" />
    <glyph glyph-name="threequarters" unicode="&#xbe;" horiz-adv-x="1303" 
d="M1237 272l-16 -127h-62v-159l-78 -27h-18v186h-277l15 138q116 244 256 358q26 8 102 16v-385h78zM1004 1044l-592 -1085h-86l596 1085h82zM492 598q0 -104 -76 -183t-180 -79q-100 0 -156 65l39 115h24q31 -72 121 -72q55 0 96 34t41 83q0 103 -137 103q-36 0 -63 -9
l-11 11l19 79q139 15 139 115q0 78 -94 78q-72 0 -107 -35l-24 4l29 101q44 36 135 36q74 0 118 -41.5t44 -107.5q0 -98 -91 -145q134 -28 134 -152zM1063 272v250q-123 -106 -168 -250h168z" />
    <glyph glyph-name=".notdef.107" unicode="&#xc0;" horiz-adv-x="1441" 
d="M514 1475h434l496 -1475h-416l-53 164h-508l-53 -164h-416zM723 938h-4l-133 -410h274zM515 1656v141l411 -138v-135z" />
    <glyph glyph-name=".notdef.108" unicode="&#xc1;" horiz-adv-x="1441" 
d="M514 1475h434l496 -1475h-416l-53 164h-508l-53 -164h-416zM723 938h-4l-133 -410h274zM515 1524v135l403 138v-141z" />
    <glyph glyph-name=".notdef.112" unicode="&#xc2;" horiz-adv-x="1441" 
d="M514 1475h434l496 -1475h-416l-53 164h-508l-53 -164h-416zM723 938h-4l-133 -410h274zM926 1524l-213 142l-214 -142v142l214 141l213 -141v-142z" />
    <glyph glyph-name=".notdef.110" unicode="&#xc3;" horiz-adv-x="1441" 
d="M514 1475h434l496 -1475h-416l-53 164h-508l-53 -164h-416zM723 938h-4l-133 -410h274zM933 1685q-3 -56 -29 -101q-30 -55 -92 -54q-40 0 -106 36q-51 24 -76.5 14.5t-30.5 -33.5q-4 -14 -5 -27l-78 21l5 25q7 33 21.5 64.5t39 51t60.5 19.5q35 0 97 -33q58 -27 84 -27
q15 1 26 18q8 16 10 42z" />
    <glyph glyph-name=".notdef.124" unicode="&#xc8;" horiz-adv-x="1024" 
d="M112 1475h791l59 -390h-465v-153h303v-389h-303v-154h516l-100 -389h-801v1475zM273 1648v132l403 -129v-127z" />
    <glyph glyph-name=".notdef.125" unicode="&#xc9;" horiz-adv-x="1024" 
d="M112 1475h791l59 -390h-465v-153h303v-389h-303v-154h516l-100 -389h-801v1475zM309 1524v123l394 125v-128z" />
    <glyph glyph-name=".notdef.129" unicode="&#xca;" horiz-adv-x="1024" 
d="M112 1475h791l59 -390h-465v-153h303v-389h-303v-154h516l-100 -389h-801v1475zM734 1524l-222 120l-222 -120v120l222 120l222 -120v-120z" />
    <glyph glyph-name=".notdef.104" unicode="&#xcc;" horiz-adv-x="569" 
d="M92 1475h385v-1475h-385v1475zM83 1640v122l411 -120v-118z" />
    <glyph glyph-name=".notdef.103" unicode="&#xcd;" horiz-adv-x="569" 
d="M92 1475h385v-1475h-385v1475zM83 1524v114l403 116v-118z" />
    <glyph glyph-name="Dslash" unicode="&#xd0;" horiz-adv-x="1214" 
d="M0 909h113v566h350q170 0 303 -62.5t221 -168t132 -235.5t44 -264q0 -155 -53 -291.5t-152.5 -238.5t-236.5 -158.5t-303 -56.5h-305v623h-113v286zM594 623h-96v-209q86 12 142 50t84 86t37 98t9 102q0 59 -12.5 112t-42 101.5t-83.5 81t-134 40.5v-176h96v-286z" />
    <glyph glyph-name="Dslash" unicode="&#x110;" horiz-adv-x="1214" 
d="M0 909h113v566h350q170 0 303 -62.5t221 -168t132 -235.5t44 -264q0 -155 -53 -291.5t-152.5 -238.5t-236.5 -158.5t-303 -56.5h-305v623h-113v286zM594 623h-96v-209q86 12 142 50t84 86t37 98t9 102q0 59 -12.5 112t-42 101.5t-83.5 81t-134 40.5v-176h96v-286z" />
    <glyph glyph-name=".notdef.099" unicode="&#xd2;" horiz-adv-x="1593" 
d="M1554 737q0 -157 -59.5 -298.5t-165 -249t-244 -167t-289.5 -59.5q-152 0 -290 59.5t-243.5 167t-165 249t-59.5 298.5q0 158 59.5 299.5t165 249t243.5 166.5t290 59q151 0 289.5 -59t244 -166.5t165 -249t59.5 -299.5zM1160 737q0 74 -27.5 142.5t-78.5 122t-118 83
t-140 29.5q-74 0 -140.5 -28.5t-116.5 -81t-79 -121t-29 -146.5q0 -75 29 -145t79 -122t116.5 -81t140.5 -29q73 0 140 30t118 83t78.5 122t27.5 142zM592 1652v137l412 -134v-131z" />
    <glyph glyph-name=".notdef.098" unicode="&#xd3;" horiz-adv-x="1593" 
d="M1554 737q0 -157 -59.5 -298.5t-165 -249t-244 -167t-289.5 -59.5q-152 0 -290 59.5t-243.5 167t-165 249t-59.5 298.5q0 158 59.5 299.5t165 249t243.5 166.5t290 59q151 0 289.5 -59t244 -166.5t165 -249t59.5 -299.5zM1160 737q0 74 -27.5 142.5t-78.5 122t-118 83
t-140 29.5q-74 0 -140.5 -28.5t-116.5 -81t-79 -121t-29 -146.5q0 -75 29 -145t79 -122t116.5 -81t140.5 -29q73 0 140 30t118 83t78.5 122t27.5 142zM592 1524v123l420 125v-128z" />
    <glyph glyph-name=".notdef.094" unicode="&#xd4;" horiz-adv-x="1593" 
d="M1554 737q0 -157 -59.5 -298.5t-165 -249t-244 -167t-289.5 -59.5q-152 0 -290 59.5t-243.5 167t-165 249t-59.5 298.5q0 158 59.5 299.5t165 249t243.5 166.5t290 59q151 0 289.5 -59t244 -166.5t165 -249t59.5 -299.5zM1160 737q0 74 -27.5 142.5t-78.5 122t-118 83
t-140 29.5q-74 0 -140.5 -28.5t-116.5 -81t-79 -121t-29 -146.5q0 -75 29 -145t79 -122t116.5 -81t140.5 -29q73 0 140 30t118 83t78.5 122t27.5 142zM1009 1524l-217 120l-218 -120v120l218 120l217 -120v-120z" />
    <glyph glyph-name=".notdef.096" unicode="&#xd5;" horiz-adv-x="1593" 
d="M1554 737q0 -157 -59.5 -298.5t-165 -249t-244 -167t-289.5 -59.5q-152 0 -290 59.5t-243.5 167t-165 249t-59.5 298.5q0 158 59.5 299.5t165 249t243.5 166.5t290 59q151 0 289.5 -59t244 -166.5t165 -249t59.5 -299.5zM1160 737q0 74 -27.5 142.5t-78.5 122t-118 83
t-140 29.5q-74 0 -140.5 -28.5t-116.5 -81t-79 -121t-29 -146.5q0 -75 29 -145t79 -122t116.5 -81t140.5 -29q73 0 140 30t118 83t78.5 122t27.5 142zM976 1704q-3 -59 -29 -107q-30 -57 -92 -56q-40 0 -106 37q-51 26 -76.5 16t-30.5 -35q-4 -15 -5 -29l-78 22q2 11 5 26
q7 36 21.5 69t39 53.5t60.5 20.5q34 0 97 -35q58 -28 84 -28q15 1 26 19q8 16 10 44z" />
    <glyph glyph-name=".notdef.088" unicode="&#xd9;" 
d="M81 1475h385v-938q0 -82 27.5 -129.5t93.5 -47.5q65 0 93 47.5t28 129.5v938h385v-996q0 -258 -129 -387t-377 -129t-377 129t-129 387v996zM350 1640v122l412 -120v-118z" />
    <glyph glyph-name=".notdef.087" unicode="&#xda;" 
d="M81 1475h385v-938q0 -82 27.5 -129.5t93.5 -47.5q65 0 93 47.5t28 129.5v938h385v-996q0 -258 -129 -387t-377 -129t-377 129t-129 387v996zM422 1524v118l403 120v-122z" />
    <glyph glyph-name=".notdef.070" unicode="&#xdd;" horiz-adv-x="1212" 
d="M0 1475h434l172 -361l172 361h434l-413 -826v-649h-385v649zM459 1524v114l403 116v-118z" />
    <glyph glyph-name=".notdef.066" unicode="&#xe0;" horiz-adv-x="985" 
d="M128 795q7 2 41 6q56 10 92.5 14t94.5 4q116 0 154 -28.5t38 -110.5q-24 12 -66 20.5t-89 8.5q-170 0 -268.5 -107.5t-98.5 -253.5q0 -172 95 -272.5t235 -100.5q92 0 152.5 36t76.5 67h4v-78h307v727q0 104 -27.5 170t-84.5 102q-92 62 -322 62q-78 0 -235 -10
q-19 -2 -56 -4zM475 479q45 0 76.5 -31.5t31.5 -76.5t-31.5 -77t-76.5 -32q-46 0 -77.5 32t-31.5 77t31.5 76.5t77.5 31.5zM286 1193v122l420 -119v-118z" />
    <glyph glyph-name=".notdef.065" unicode="&#xe1;" horiz-adv-x="985" 
d="M128 795q7 2 41 6q56 10 92.5 14t94.5 4q116 0 154 -28.5t38 -110.5q-24 12 -66 20.5t-89 8.5q-170 0 -268.5 -107.5t-98.5 -253.5q0 -172 95 -272.5t235 -100.5q92 0 152.5 36t76.5 67h4v-78h307v727q0 104 -27.5 170t-84.5 102q-92 62 -322 62q-78 0 -235 -10
q-19 -2 -56 -4zM475 479q45 0 76.5 -31.5t31.5 -76.5t-31.5 -77t-76.5 -32q-46 0 -77.5 32t-31.5 77t31.5 76.5t77.5 31.5zM286 1078v105l395 106v-109z" />
    <glyph glyph-name=".notdef.061" unicode="&#xe2;" horiz-adv-x="985" 
d="M171 1047q37 2 56 4q157 10 235 10q230 0 322 -62q57 -36 84.5 -102t27.5 -170v-727h-307v78h-4q-16 -31 -76.5 -67t-152.5 -36q-140 0 -235 100.5t-95 272.5q0 146 98.5 253.5t268.5 107.5q47 0 89 -8.5t66 -20.5q0 82 -38 110.5t-154 28.5q-58 0 -94.5 -4t-92.5 -14
q-34 -4 -41 -6zM475 479q-46 0 -77.5 -31.5t-31.5 -76.5t31.5 -77t77.5 -32q45 0 76.5 32t31.5 77t-31.5 76.5t-76.5 31.5zM719 1071l-226 119l-227 -119v119l227 119l226 -119v-119z" />
    <glyph glyph-name=".notdef.063" unicode="&#xe3;" horiz-adv-x="985" 
d="M171 1047q37 2 56 4q157 10 235 10q230 0 322 -62q57 -36 84.5 -102t27.5 -170v-727h-307v78h-4q-16 -31 -76.5 -67t-152.5 -36q-140 0 -235 100.5t-95 272.5q0 146 98.5 253.5t268.5 107.5q47 0 89 -8.5t66 -20.5q0 82 -38 110.5t-154 28.5q-58 0 -94.5 -4t-92.5 -14
q-34 -4 -41 -6zM475 479q-46 0 -77.5 -31.5t-31.5 -76.5t31.5 -77t77.5 -32q45 0 76.5 32t31.5 77t-31.5 76.5t-76.5 31.5zM696 1273q-3 -59 -29 -106q-31 -57 -95 -56q-41 0 -108 37q-52 25 -78 15t-32 -34q-4 -15 -4 -29l-80 22q2 11 5 26q7 35 22 67.5t40 53t62 20.5
q35 0 99 -34q59 -29 85 -29q16 2 27 19q8 17 10 44z" />
    <glyph glyph-name=".notdef.049" unicode="&#xe8;" horiz-adv-x="1062" 
d="M1003 106h-2q-88 -53 -192.5 -92t-250.5 -39q-73 0 -162.5 27t-173.5 90.5t-137 173t-53 262.5q0 138 50 243.5t133 176t180.5 104t191.5 33.5q123 0 208 -36.5t137 -95t79 -116t47 -126.5l-534 -379q14 -10 51 -19.5t71 -9.5q86 0 181.5 46t150.5 106zM669 741
q-14 19 -50 28t-67 9q-76 0 -128 -52t-52 -144q0 -17 8 -52v-6zM329 1225v118l428 -115v-114z" />
    <glyph glyph-name=".notdef.048" unicode="&#xe9;" horiz-adv-x="1062" 
d="M1003 106h-2q-88 -53 -192.5 -92t-250.5 -39q-73 0 -162.5 27t-173.5 90.5t-137 173t-53 262.5q0 138 50 243.5t133 176t180.5 104t191.5 33.5q123 0 208 -36.5t137 -95t79 -116t47 -126.5l-534 -379q14 -10 51 -19.5t71 -9.5q86 0 181.5 46t150.5 106zM669 741
q-14 19 -50 28t-67 9q-76 0 -128 -52t-52 -144q0 -17 8 -52v-6zM329 1114v122l420 123v-126z" />
    <glyph glyph-name=".notdef.044" unicode="&#xea;" horiz-adv-x="1062" 
d="M1003 106h-2q-88 -53 -192.5 -92t-250.5 -39q-73 0 -162.5 27t-173.5 90.5t-137 173t-53 262.5q0 138 50 243.5t133 176t180.5 104t191.5 33.5q123 0 208 -36.5t137 -95t79 -116t47 -126.5l-534 -379q14 -10 51 -19.5t71 -9.5q86 0 181.5 46t150.5 106zM669 741
q-14 19 -50 28t-67 9q-76 0 -128 -52t-52 -144q0 -17 8 -52v-6zM804 1071l-226 119l-227 -119v119l227 119l226 -119v-119z" />
    <glyph glyph-name=".notdef.038" unicode="&#xec;" horiz-adv-x="532" 
d="M88 1061h356v-1061h-356v1061zM64 1229v123l377 -120v-118z" />
    <glyph glyph-name=".notdef.037" unicode="&#xed;" horiz-adv-x="532" 
d="M88 1061h356v-1061h-356v1061zM64 1114v126l386 128v-131z" />
    <glyph glyph-name=".notdef.033" unicode="&#xf2;" 
d="M32 530q0 115 43 216.5t120 177t178 118.5t214 43q115 0 216 -43t177 -118.5t119 -177t43 -216.5q0 -112 -43 -213.5t-119 -178.5t-177 -120t-216 -43q-113 0 -214 43t-178 120t-120 178.5t-43 213.5zM388 530q0 -84 57.5 -141t141.5 -57t141.5 57t57.5 141t-57.5 141.5
t-141.5 57.5t-141.5 -57.5t-57.5 -141.5zM397 1237v135l411 -132v-129z" />
    <glyph glyph-name=".notdef.032" unicode="&#xf3;" 
d="M32 530q0 115 43 216.5t120 177t178 118.5t214 43q115 0 216 -43t177 -118.5t119 -177t43 -216.5q0 -112 -43 -213.5t-119 -178.5t-177 -120t-216 -43q-113 0 -214 43t-178 120t-120 178.5t-43 213.5zM388 530q0 -84 57.5 -141t141.5 -57t141.5 57t57.5 141t-57.5 141.5
t-141.5 57.5t-141.5 -57.5t-57.5 -141.5zM386 1114v122l429 123v-126z" />
    <glyph glyph-name=".notdef.028" unicode="&#xf4;" 
d="M32 530q0 115 43 216.5t120 177t178 118.5t214 43q115 0 216 -43t177 -118.5t119 -177t43 -216.5q0 -112 -43 -213.5t-119 -178.5t-177 -120t-216 -43q-113 0 -214 43t-178 120t-120 178.5t-43 213.5zM388 530q0 -84 57.5 -141t141.5 -57t141.5 57t57.5 141t-57.5 141.5
t-141.5 57.5t-141.5 -57.5t-57.5 -141.5zM812 1071l-226 119l-227 -119v119l227 119l226 -119v-119z" />
    <glyph glyph-name=".notdef.030" unicode="&#xf5;" 
d="M32 530q0 115 43 216.5t120 177t178 118.5t214 43q115 0 216 -43t177 -118.5t119 -177t43 -216.5q0 -112 -43 -213.5t-119 -178.5t-177 -120t-216 -43q-113 0 -214 43t-178 120t-120 178.5t-43 213.5zM388 530q0 -84 57.5 -141t141.5 -57t141.5 57t57.5 141t-57.5 141.5
t-141.5 57.5t-141.5 -57.5t-57.5 -141.5zM813 1283q-3 -54 -31 -98q-31 -52 -98 -51q-43 0 -112 34q-54 24 -81 14.5t-33 -32.5q-4 -13 -5 -26l-83 20q2 10 5 24q7 32 23 62t42 49t64 19q36 0 103 -31q61 -27 89 -27q16 2 27 18q9 15 11 40z" />
    <glyph glyph-name="divide" unicode="&#xf7;" horiz-adv-x="1706" 
 />
    <glyph glyph-name=".notdef.022" unicode="&#xf9;" horiz-adv-x="1099" 
d="M1012 0h-357v98q-55 -59 -118.5 -91t-141.5 -32q-59 0 -113.5 16.5t-98.5 53.5t-69.5 96.5t-25.5 139.5v780h356v-582q0 -65 22.5 -106t86.5 -41q59 0 80.5 42t21.5 105v582h357v-1061zM386 1225v118l395 -115v-114z" />
    <glyph glyph-name=".notdef.021" unicode="&#xfa;" horiz-adv-x="1099" 
d="M1012 0h-357v98q-55 -59 -118.5 -91t-141.5 -32q-59 0 -113.5 16.5t-98.5 53.5t-69.5 96.5t-25.5 139.5v780h356v-582q0 -65 22.5 -106t86.5 -41q59 0 80.5 42t21.5 105v582h357v-1061zM386 1114v114l420 115v-118z" />
    <glyph glyph-name=".notdef.004" unicode="&#xfd;" horiz-adv-x="1062" 
d="M4 1061h393l152 -514h4l121 514h385l-424 -1421h-385l123 417zM386 1114v118l429 120v-123z" />
    <glyph glyph-name=".notdef.118" unicode="&#x102;" horiz-adv-x="1441" 
d="M514 1475h434l496 -1475h-416l-53 164h-508l-53 -164h-416zM723 938h-4l-133 -410h274zM952 1598q-234 -136 -453 0v136q225 -188 453 0v-136z" />
    <glyph glyph-name=".notdef.055" unicode="&#x103;" horiz-adv-x="985" 
d="M171 1047q37 2 56 4q157 10 235 10q230 0 322 -62q57 -36 84.5 -102t27.5 -170v-727h-307v78h-4q-16 -31 -76.5 -67t-152.5 -36q-140 0 -235 100.5t-95 272.5q0 146 98.5 253.5t268.5 107.5q47 0 89 -8.5t66 -20.5q0 82 -38 110.5t-154 28.5q-58 0 -94.5 -4t-92.5 -14
q-34 -4 -41 -6zM475 479q-46 0 -77.5 -31.5t-31.5 -76.5t31.5 -77t77.5 -32q45 0 76.5 32t31.5 77t-31.5 76.5t-76.5 31.5zM693 1173q-208 -136 -427 0v135q212 -187 427 0v-135z" />
    <glyph glyph-name="Ccaron" unicode="&#x10c;" horiz-adv-x="1274" 
 />
    <glyph glyph-name="ccaron" unicode="&#x10d;" horiz-adv-x="922" 
 />
    <glyph glyph-name="dcroat" unicode="&#x111;" horiz-adv-x="1251" 
d="M399 530q0 -84 58.5 -141t142.5 -57t141.5 57t57.5 141t-57.5 141.5t-141.5 57.5t-142.5 -57.5t-58.5 -141.5zM807 1338v137h356v-137h78v-163h-78v-1175h-356v111h-4q-35 -54 -103.5 -95t-173.5 -41q-96 0 -184 39t-155.5 110t-105.5 166t-38 206q0 272 143.5 430.5
t376.5 158.5q88 0 150.5 -27.5t93.5 -58.5v176h-215v163h215z" />
    <glyph glyph-name=".notdef.101" unicode="&#x128;" horiz-adv-x="569" 
d="M92 1475h385v-1475h-385v1475zM513 1694q-3 -59 -29 -107q-31 -57 -94 -56q-42 0 -108 37q-52 26 -78 15.5t-32 -34.5q-4 -15 -5 -29l-79 22q2 11 5 26q7 35 22 68t40 53.5t61 20.5t99 -34q59 -29 85 -29q16 1 27 19q9 17 11 44z" />
    <glyph glyph-name=".notdef.035" unicode="&#x129;" horiz-adv-x="532" 
d="M88 1061h356v-1061h-356v1061zM491 1299q-3 -59 -29 -107q-31 -58 -94 -57q-41 0 -108 37q-52 26 -78 16t-32 -35q-4 -15 -5 -29l-79 22q2 11 5 26q7 36 22 69t40 54t61 21t99 -35q59 -29 85 -29q16 2 27 19q9 17 11 45z" />
    <glyph glyph-name=".notdef.085" unicode="&#x168;" 
d="M81 1475h385v-938q0 -82 27.5 -129.5t93.5 -47.5q65 0 93 47.5t28 129.5v938h385v-996q0 -258 -129 -387t-377 -129t-377 129t-129 387v996zM811 1721q-3 -65 -30 -117q-31 -63 -96 -62q-42 0 -110 41q-53 28 -79.5 17t-32.5 -38q-4 -17 -5 -32l-81 24q2 12 5 29
q7 39 22.5 75t41 58.5t62.5 22.5q36 0 101 -38q60 -31 87 -31q16 1 27 21q9 18 11 48z" />
    <glyph glyph-name=".notdef.019" unicode="&#x169;" horiz-adv-x="1099" 
d="M1012 0h-357v98q-55 -59 -118.5 -91t-141.5 -32q-59 0 -113.5 16.5t-98.5 53.5t-69.5 96.5t-25.5 139.5v780h356v-582q0 -65 22.5 -106t86.5 -41q59 0 80.5 42t21.5 105v582h357v-1061zM796 1291q-3 -56 -29 -102q-31 -56 -95 -54q-41 0 -108 35q-52 25 -78 15t-32 -33
q-3 -15 -4 -28l-80 21q2 11 5 25q7 34 22 66t40 51.5t62 19.5q35 0 99 -33q59 -27 85 -27q16 1 27 18q9 16 10 42z" />
    <glyph glyph-name=".notdef.077" unicode="&#x1a0;" horiz-adv-x="1593" 
d="M1160 737q0 74 -27.5 142.5t-78.5 122t-118 83t-140 29.5q-74 0 -140.5 -28.5t-116.5 -81t-79 -121t-29 -146.5q0 -75 29 -145t79 -122t116.5 -81t140.5 -29q73 0 140 30t118 83t78.5 122t27.5 142zM1411 1188q49 -70 84 -151q59 -142 59 -300q0 -157 -59.5 -298.5
t-165 -249t-244 -167t-289.5 -59.5q-152 0 -290 59.5t-243.5 167t-165 249t-59.5 298.5q0 158 59.5 299.5t165 249t243.5 166.5t290 59q151 0 290 -59q111 -48 201 -126l49 203h166z" />
    <glyph glyph-name=".notdef.011" unicode="&#x1a1;" 
d="M388 530q0 -84 57.5 -141t141.5 -57t141.5 57t57.5 141t-57.5 141.5t-141.5 57.5t-141.5 -57.5t-57.5 -141.5zM1038 856q36 -50 61 -109q43 -102 43 -217q0 -112 -43 -213.5t-119 -178.5t-177 -120t-216 -43q-113 0 -214 43t-178 120t-120 178.5t-43 213.5
q0 115 43 216.5t120 177t178 118.5t214 43q115 0 216 -43q57 -24 107 -59l33 139h166z" />
    <glyph glyph-name=".notdef.083" unicode="&#x1af;" 
d="M1093 1179v-700q0 -258 -129 -387t-377 -129t-377 129t-129 387v996h385v-938q0 -82 27.5 -129.5t93.5 -47.5q65 0 93 47.5t28 129.5v938h362l13 54h166l-94 -350h-62z" />
    <glyph glyph-name=".notdef.017" unicode="&#x1b0;" horiz-adv-x="1099" 
d="M1012 772v-772h-357v98q-55 -59 -118.5 -91t-141.5 -32q-59 0 -113.5 16.5t-98.5 53.5t-69.5 96.5t-25.5 139.5v780h356v-582q0 -65 22.5 -106t86.5 -41q59 0 80.5 42t21.5 105v582h307l15 61h166l-94 -350h-37z" />
    <glyph glyph-name=".notdef.111" unicode="&#x1ea0;" horiz-adv-x="1441" 
d="M514 1475h434l496 -1475h-416l-53 164h-508l-53 -164h-416zM723 938h-4l-133 -410h274zM723 -262q-50 0 -85 34t-35 82t35 81t85 33t86 -33t36 -81t-36 -82t-86 -34z" />
    <glyph glyph-name=".notdef.062" unicode="&#x1ea1;" horiz-adv-x="985" 
d="M171 1047q37 2 56 4q157 10 235 10q230 0 322 -62q57 -36 84.5 -102t27.5 -170v-727h-307v78h-4q-16 -31 -76.5 -67t-152.5 -36q-140 0 -235 100.5t-95 272.5q0 146 98.5 253.5t268.5 107.5q47 0 89 -8.5t66 -20.5q0 82 -38 110.5t-154 28.5q-58 0 -94.5 -4t-92.5 -14
q-34 -4 -41 -6zM475 479q-46 0 -77.5 -31.5t-31.5 -76.5t31.5 -77t77.5 -32q45 0 76.5 32t31.5 77t-31.5 76.5t-76.5 31.5zM454 -244q-47 0 -80 31.5t-33 77.5q0 45 33 76t80 31t80 -31t33 -76q0 -46 -33 -77.5t-80 -31.5z" />
    <glyph glyph-name=".notdef.109" unicode="&#x1ea2;" horiz-adv-x="1441" 
d="M514 1475h434l496 -1475h-416l-53 164h-508l-53 -164h-416zM723 938h-4l-133 -410h274zM699 1523q4 23 13 41q16 45 52 88q35 35 40 66q2 35 -20 52.5t-44 20t-43.5 -7.5t-42.5 -42l-77 41q24 41 63 67.5t91 29.5q81 2 129 -41.5t48 -116.5q-9 -43 -26 -68.5t-44 -60.5
q-17 -28 -31 -61q-4 -10 -7 -25z" />
    <glyph glyph-name=".notdef.064" unicode="&#x1ea3;" horiz-adv-x="985" 
d="M171 1047q37 2 56 4q157 10 235 10q230 0 322 -62q57 -36 84.5 -102t27.5 -170v-727h-307v78h-4q-16 -31 -76.5 -67t-152.5 -36q-140 0 -235 100.5t-95 272.5q0 146 98.5 253.5t268.5 107.5q47 0 89 -8.5t66 -20.5q0 82 -38 110.5t-154 28.5q-58 0 -94.5 -4t-92.5 -14
q-34 -4 -41 -6zM475 479q-46 0 -77.5 -31.5t-31.5 -76.5t31.5 -77t77.5 -32q45 0 76.5 32t31.5 77t-31.5 76.5t-76.5 31.5zM430 1112q5 21 13 37q15 41 49 80q34 32 38 61q2 32 -18.5 48t-42 18t-41.5 -7.5t-40 -37.5l-73 37q22 38 59 62t87 26q77 2 122.5 -37.5
t45.5 -106.5q-8 -39 -24 -62t-42 -55q-16 -26 -29 -55q-5 -10 -7 -23z" />
    <glyph glyph-name=".notdef.114" unicode="&#x1ea4;" horiz-adv-x="1441" 
d="M514 1475h434l496 -1475h-416l-53 164h-508l-53 -164h-416zM723 938h-4l-133 -410h274zM516 1717v107l418 108v-110zM960 1524l-231 108l-230 -108v108l230 108l231 -108v-108z" />
    <glyph glyph-name=".notdef.059" unicode="&#x1ea5;" horiz-adv-x="985" 
d="M171 1047q37 2 56 4q157 10 235 10q230 0 322 -62q57 -36 84.5 -102t27.5 -170v-727h-307v78h-4q-16 -31 -76.5 -67t-152.5 -36q-140 0 -235 100.5t-95 272.5q0 146 98.5 253.5t268.5 107.5q47 0 89 -8.5t66 -20.5q0 82 -38 110.5t-154 28.5q-58 0 -94.5 -4t-92.5 -14
q-34 -4 -41 -6zM475 479q-46 0 -77.5 -31.5t-31.5 -76.5t31.5 -77t77.5 -32q45 0 76.5 32t31.5 77t-31.5 76.5t-76.5 31.5zM286 1229v105l403 107v-109zM710 1071l-222 81l-222 -81v81l222 106l222 -106v-81z" />
    <glyph glyph-name=".notdef.113" unicode="&#x1ea6;" horiz-adv-x="1441" 
d="M514 1475h434l496 -1475h-416l-53 164h-508l-53 -164h-416zM723 938h-4l-133 -410h274zM515 1821v106l411 -103v-102zM952 1524l-227 103l-226 -103v103l226 103l227 -103v-103z" />
    <glyph glyph-name=".notdef.060" unicode="&#x1ea7;" horiz-adv-x="985" 
d="M171 1047q37 2 56 4q157 10 235 10q230 0 322 -62q57 -36 84.5 -102t27.5 -170v-727h-307v78h-4q-16 -31 -76.5 -67t-152.5 -36q-140 0 -235 100.5t-95 272.5q0 146 98.5 253.5t268.5 107.5q47 0 89 -8.5t66 -20.5q0 82 -38 110.5t-154 28.5q-58 0 -94.5 -4t-92.5 -14
q-34 -4 -41 -6zM475 479q-46 0 -77.5 -31.5t-31.5 -76.5t31.5 -77t77.5 -32q45 0 76.5 32t31.5 77t-31.5 76.5t-76.5 31.5zM274 1329v97l411 -95v-93zM719 1071l-226 94l-227 -94v94l227 95l226 -95v-94z" />
    <glyph glyph-name=".notdef.115" unicode="&#x1ea8;" horiz-adv-x="1441" 
d="M514 1475h434l496 -1475h-416l-53 164h-508l-53 -164h-416zM723 938h-4l-133 -410h274zM966 1524l-233 110l-234 -110v110l234 110l233 -110v-110zM1023 1531q4 23 13 41q16 45 52 88q35 35 40 66q2 35 -20 52.5t-44 20t-43.5 -7.5t-42.5 -42l-77 41q24 41 63 67.5
t91 29.5q81 2 129 -41.5t48 -116.5q-9 -43 -26 -68.5t-44 -60.5q-17 -28 -31 -61q-4 -10 -7 -25z" />
    <glyph glyph-name=".notdef.058" unicode="&#x1ea9;" horiz-adv-x="985" 
d="M171 1047q37 2 56 4q157 10 235 10q230 0 322 -62q57 -36 84.5 -102t27.5 -170v-727h-307v78h-4q-16 -31 -76.5 -67t-152.5 -36q-140 0 -235 100.5t-95 272.5q0 146 98.5 253.5t268.5 107.5q47 0 89 -8.5t66 -20.5q0 82 -38 110.5t-154 28.5q-58 0 -94.5 -4t-92.5 -14
q-34 -4 -41 -6zM475 479q-46 0 -77.5 -31.5t-31.5 -76.5t31.5 -77t77.5 -32q45 0 76.5 32t31.5 77t-31.5 76.5t-76.5 31.5zM719 1071l-226 115l-227 -115v115l227 115l226 -115v-115zM754 1097q4 21 12 38q14 42 47 82q32 32 36 61q1 33 -18 49t-39 18.5t-39.5 -7
t-38.5 -38.5l-69 38q21 38 56.5 62.5t81.5 27.5q73 2 116 -38.5t43 -108.5q-8 -40 -23 -63.5t-39 -56.5q-16 -26 -29 -57q-3 -9 -5 -23z" />
    <glyph glyph-name=".notdef.116" unicode="&#x1eaa;" horiz-adv-x="1441" 
d="M514 1475h434l496 -1475h-416l-53 164h-508l-53 -164h-416zM723 938h-4l-133 -410h274zM963 1879q-3 -51 -29 -93q-31 -50 -95 -49q-41 0 -108 32q-52 23 -78 14t-32 -30q-3 -14 -4 -26l-79 20q2 9 4 22q7 31 22 60t40 47t62 18q35 0 99 -30q59 -25 85 -25q16 1 27 16
q9 15 11 39zM935 1524l-218 97l-218 -97v97l218 97l218 -97v-97z" />
    <glyph glyph-name=".notdef.057" unicode="&#x1eab;" horiz-adv-x="985" 
d="M171 1047q37 2 56 4q157 10 235 10q230 0 322 -62q57 -36 84.5 -102t27.5 -170v-727h-307v78h-4q-16 -31 -76.5 -67t-152.5 -36q-140 0 -235 100.5t-95 272.5q0 146 98.5 253.5t268.5 107.5q47 0 89 -8.5t66 -20.5q0 82 -38 110.5t-154 28.5q-58 0 -94.5 -4t-92.5 -14
q-34 -4 -41 -6zM475 479q-46 0 -77.5 -31.5t-31.5 -76.5t31.5 -77t77.5 -32q45 0 76.5 32t31.5 77t-31.5 76.5t-76.5 31.5zM753 1419q-3 -53 -32 -96q-32 -52 -101 -51q-44 0 -116 34q-56 23 -84 13.5t-34 -31.5q-4 -13 -5 -26l-85 20q2 10 5 24q7 32 23.5 61.5t43.5 48
t66 18.5q37 0 106 -31q63 -26 92 -26q16 1 28 17q10 15 12 40zM734 1071l-234 100l-234 -100v100l234 100l234 -100v-100z" />
    <glyph glyph-name=".notdef.117" unicode="&#x1eac;" horiz-adv-x="1441" 
d="M514 1475h434l496 -1475h-416l-53 164h-508l-53 -164h-416zM723 938h-4l-133 -410h274zM952 1524l-227 120l-226 -120v120l226 120l227 -120v-120zM715 -263q-50 0 -85 34t-35 82t35 81t85 33t86 -33t36 -81t-36 -82t-86 -34z" />
    <glyph glyph-name=".notdef.056" unicode="&#x1ead;" horiz-adv-x="985" 
d="M171 1047q37 2 56 4q157 10 235 10q230 0 322 -62q57 -36 84.5 -102t27.5 -170v-727h-307v78h-4q-16 -31 -76.5 -67t-152.5 -36q-140 0 -235 100.5t-95 272.5q0 146 98.5 253.5t268.5 107.5q47 0 89 -8.5t66 -20.5q0 82 -38 110.5t-154 28.5q-58 0 -94.5 -4t-92.5 -14
q-34 -4 -41 -6zM475 479q-46 0 -77.5 -31.5t-31.5 -76.5t31.5 -77t77.5 -32q45 0 76.5 32t31.5 77t-31.5 76.5t-76.5 31.5zM719 1071l-226 123l-227 -123v123l227 123l226 -123v-123zM472 -286q-50 0 -85 34t-35 82t35 81t85 33t86 -33t36 -81t-36 -82t-86 -34z" />
    <glyph glyph-name=".notdef.120" unicode="&#x1eae;" horiz-adv-x="1441" 
d="M514 1475h434l496 -1475h-416l-53 164h-508l-53 -164h-416zM723 938h-4l-133 -410h274zM543 1717v112l403 112v-115zM943 1589q-225 -127 -444 0v113q221 -156 444 0v-113z" />
    <glyph glyph-name=".notdef.053" unicode="&#x1eaf;" horiz-adv-x="985" 
d="M171 1047q37 2 56 4q157 10 235 10q230 0 322 -62q57 -36 84.5 -102t27.5 -170v-727h-307v78h-4q-16 -31 -76.5 -67t-152.5 -36q-140 0 -235 100.5t-95 272.5q0 146 98.5 253.5t268.5 107.5q47 0 89 -8.5t66 -20.5q0 82 -38 110.5t-154 28.5q-58 0 -94.5 -4t-92.5 -14
q-34 -4 -41 -6zM475 479q-46 0 -77.5 -31.5t-31.5 -76.5t31.5 -77t77.5 -32q45 0 76.5 32t31.5 77t-31.5 76.5t-76.5 31.5zM325 1258v100l426 101v-103zM735 1160q-250 -123 -469 0v101q234 -140 469 0v-101z" />
    <glyph glyph-name=".notdef.119" unicode="&#x1eb0;" horiz-adv-x="1441" 
d="M514 1475h434l496 -1475h-416l-53 164h-508l-53 -164h-416zM723 938h-4l-133 -410h274zM452 1801v100l424 -98v-96zM969 1583q-251 -121 -468 0v98q233 -135 468 0v-98z" />
    <glyph glyph-name=".notdef.054" unicode="&#x1eb1;" horiz-adv-x="985" 
d="M171 1047q37 2 56 4q157 10 235 10q230 0 322 -62q57 -36 84.5 -102t27.5 -170v-727h-307v78h-4q-16 -31 -76.5 -67t-152.5 -36q-140 0 -235 100.5t-95 272.5q0 146 98.5 253.5t268.5 107.5q47 0 89 -8.5t66 -20.5q0 82 -38 110.5t-154 28.5q-58 0 -94.5 -4t-92.5 -14
q-34 -4 -41 -6zM475 479q-46 0 -77.5 -31.5t-31.5 -76.5t31.5 -77t77.5 -32q45 0 76.5 32t31.5 77t-31.5 76.5t-76.5 31.5zM225 1326v99l411 -97v-96zM719 1158q-234 -121 -452 0v97q225 -134 452 0v-97z" />
    <glyph glyph-name=".notdef.121" unicode="&#x1eb2;" horiz-adv-x="1441" 
d="M514 1475h434l496 -1475h-416l-53 164h-508l-53 -164h-416zM723 938h-4l-133 -410h274zM952 1582q-234 -120 -453 0v94q225 -130 453 0v-94zM680 1634q3 18 10 33q13 36 42 70q28 28 32 53q1 29 -16.5 43t-35 16t-34.5 -6t-34 -34l-61 33q19 33 50 54t73 24q64 1 102 -34
t38 -93q-7 -35 -20.5 -55.5t-34.5 -48.5q-14 -22 -25 -49q-3 -8 -6 -20z" />
    <glyph glyph-name=".notdef.052" unicode="&#x1eb3;" horiz-adv-x="985" 
d="M171 1047q37 2 56 4q157 10 235 10q230 0 322 -62q57 -36 84.5 -102t27.5 -170v-727h-307v78h-4q-16 -31 -76.5 -67t-152.5 -36q-140 0 -235 100.5t-95 272.5q0 146 98.5 253.5t268.5 107.5q47 0 89 -8.5t66 -20.5q0 82 -38 110.5t-154 28.5q-58 0 -94.5 -4t-92.5 -14
q-34 -4 -41 -6zM475 479q-46 0 -77.5 -31.5t-31.5 -76.5t31.5 -77t77.5 -32q45 0 76.5 32t31.5 77t-31.5 76.5t-76.5 31.5zM702 1156q-217 -119 -436 0v93q217 -128 436 0v-93zM439 1219q3 19 11 34q13 36 43 72q29 28 33 54q2 28 -16.5 42.5t-36.5 16.5t-36 -6t-35 -34
l-64 33q20 34 52.5 55.5t75.5 24.5q67 1 106.5 -34.5t39.5 -95.5q-7 -35 -21 -56t-37 -50q-14 -22 -25 -50q-4 -8 -6 -20z" />
    <glyph glyph-name=".notdef.122" unicode="&#x1eb4;" horiz-adv-x="1441" 
d="M514 1475h434l496 -1475h-416l-53 164h-508l-53 -164h-416zM723 938h-4l-133 -410h274zM937 1853q-3 -51 -28 -93q-29 -50 -90 -49q-40 0 -104 32q-50 23 -74.5 14t-30.5 -30q-4 -13 -5 -25l-76 19q2 9 5 22q6 31 21 60t38.5 46.5t58.5 17.5q34 0 95 -30q57 -25 82 -25
q15 2 25 17q9 14 11 38zM916 1583q-198 -121 -417 0v96q208 -133 417 0v-96z" />
    <glyph glyph-name=".notdef.051" unicode="&#x1eb5;" horiz-adv-x="985" 
d="M171 1047q37 2 56 4q157 10 235 10q230 0 322 -62q57 -36 84.5 -102t27.5 -170v-727h-307v78h-4q-16 -31 -76.5 -67t-152.5 -36q-140 0 -235 100.5t-95 272.5q0 146 98.5 253.5t268.5 107.5q47 0 89 -8.5t66 -20.5q0 82 -38 110.5t-154 28.5q-58 0 -94.5 -4t-92.5 -14
q-34 -4 -41 -6zM475 479q-46 0 -77.5 -31.5t-31.5 -76.5t31.5 -77t77.5 -32q45 0 76.5 32t31.5 77t-31.5 76.5t-76.5 31.5zM717 1417q-3 -54 -29 -99q-31 -54 -94 -53q-41 0 -107 35q-52 24 -78 15t-32 -33q-4 -14 -5 -26l-79 19q2 11 5 25q7 33 22 64t40 50t61 19
q35 0 99 -32q58 -27 85 -27q15 1 26 19q9 14 11 40zM699 1160q-214 -123 -433 0v104q216 -143 433 0v-104z" />
    <glyph glyph-name=".notdef.123" unicode="&#x1eb6;" horiz-adv-x="1441" 
d="M514 1475h434l496 -1475h-416l-53 164h-508l-53 -164h-416zM723 938h-4l-133 -410h274zM943 1597q-225 -135 -444 0v132q221 -183 444 0v-132zM707 -255q-50 0 -85 34t-35 82t35 81t85 33t86 -33t36 -81t-36 -82t-86 -34z" />
    <glyph glyph-name=".notdef.050" unicode="&#x1eb7;" horiz-adv-x="985" 
d="M171 1047q37 2 56 4q157 10 235 10q230 0 322 -62q57 -36 84.5 -102t27.5 -170v-727h-307v78h-4q-16 -31 -76.5 -67t-152.5 -36q-140 0 -235 100.5t-95 272.5q0 146 98.5 253.5t268.5 107.5q47 0 89 -8.5t66 -20.5q0 82 -38 110.5t-154 28.5q-58 0 -94.5 -4t-92.5 -14
q-34 -4 -41 -6zM475 479q-46 0 -77.5 -31.5t-31.5 -76.5t31.5 -77t77.5 -32q45 0 76.5 32t31.5 77t-31.5 76.5t-76.5 31.5zM716 1166q-231 -129 -450 0v119q224 -164 450 0v-119zM441 -286q-50 0 -85 34t-35 82t35 81t85 33t86 -33t36 -81t-36 -82t-86 -34z" />
    <glyph glyph-name=".notdef.128" unicode="&#x1eb8;" horiz-adv-x="1024" 
d="M112 1475h791l59 -390h-465v-153h303v-389h-303v-154h516l-100 -389h-801v1475zM527 -262q-50 0 -85 34t-35 82t35 81t85 33t86 -33t36 -81t-36 -82t-86 -34z" />
    <glyph glyph-name=".notdef.045" unicode="&#x1eb9;" horiz-adv-x="1062" 
d="M1003 106h-2q-88 -53 -192.5 -92t-250.5 -39q-73 0 -162.5 27t-173.5 90.5t-137 173t-53 262.5q0 138 50 243.5t133 176t180.5 104t191.5 33.5q123 0 208 -36.5t137 -95t79 -116t47 -126.5l-534 -379q14 -10 51 -19.5t71 -9.5q86 0 181.5 46t150.5 106zM669 741
q-14 19 -50 28t-67 9q-76 0 -128 -52t-52 -144q0 -17 8 -52v-6zM574 -286q-50 0 -85 34t-35 82t35 81t85 33t86 -33t36 -81t-36 -82t-86 -34z" />
    <glyph glyph-name=".notdef.126" unicode="&#x1eba;" horiz-adv-x="1024" 
d="M112 1475h791l59 -390h-465v-153h303v-389h-303v-154h516l-100 -389h-801v1475zM474 1546q4 20 11 36q14 40 44 78q30 31 34 59q2 31 -16.5 46.5t-37.5 17.5t-37 -7t-36 -37l-65 36q20 37 53 60.5t77 25.5q69 2 109.5 -36.5t40.5 -103.5q-7 -38 -21.5 -60.5t-37.5 -53.5
q-14 -25 -26 -54q-4 -9 -6 -22z" />
    <glyph glyph-name=".notdef.047" unicode="&#x1ebb;" horiz-adv-x="1062" 
d="M1003 106h-2q-88 -53 -192.5 -92t-250.5 -39q-73 0 -162.5 27t-173.5 90.5t-137 173t-53 262.5q0 138 50 243.5t133 176t180.5 104t191.5 33.5q123 0 208 -36.5t137 -95t79 -116t47 -126.5l-534 -379q14 -10 51 -19.5t71 -9.5q86 0 181.5 46t150.5 106zM669 741
q-14 19 -50 28t-67 9q-76 0 -128 -52t-52 -144q0 -17 8 -52v-6zM523 1136q4 20 11 36q14 40 44 78q30 31 34 59q2 31 -16.5 46.5t-37.5 17.5t-37 -7t-36 -37l-65 36q20 37 53 60.5t77 25.5q69 2 109.5 -36.5t40.5 -103.5q-7 -38 -21.5 -60.5t-37.5 -53.5q-14 -25 -26 -54
q-4 -9 -6 -22z" />
    <glyph glyph-name=".notdef.127" unicode="&#x1ebc;" horiz-adv-x="1024" 
d="M112 1475h791l59 -390h-465v-153h303v-389h-303v-154h516l-100 -389h-801v1475zM727 1698q-3 -60 -30 -109q-31 -59 -96 -58q-42 0 -110 38q-53 27 -79.5 16.5t-32.5 -36.5q-4 -15 -5 -29l-81 22q2 12 5 27q7 37 22.5 70.5t41 54.5t62.5 21q36 0 101 -35q60 -29 87 -29
q16 1 27 19q9 17 11 45z" />
    <glyph glyph-name=".notdef.046" unicode="&#x1ebd;" horiz-adv-x="1062" 
d="M1003 106h-2q-88 -53 -192.5 -92t-250.5 -39q-73 0 -162.5 27t-173.5 90.5t-137 173t-53 262.5q0 138 50 243.5t133 176t180.5 104t191.5 33.5q123 0 208 -36.5t137 -95t79 -116t47 -126.5l-534 -379q14 -10 51 -19.5t71 -9.5q86 0 181.5 46t150.5 106zM669 741
q-14 19 -50 28t-67 9q-76 0 -128 -52t-52 -144q0 -17 8 -52v-6zM787 1298q-3 -59 -30 -107q-31 -57 -96 -56q-42 0 -110 37q-53 26 -79.5 15.5t-32.5 -34.5q-4 -15 -5 -29l-81 22q2 11 5 26q7 35 22.5 68t41 53.5t62.5 20.5q36 0 101 -34q60 -29 87 -29q16 1 27 19
q9 17 11 44z" />
    <glyph glyph-name=".notdef.131" unicode="&#x1ebe;" horiz-adv-x="1024" 
d="M112 1475h791l59 -390h-465v-153h303v-389h-303v-154h516l-100 -389h-801v1475zM309 1672v95l409 97v-99zM741 1507l-225 96l-225 -96v96l225 97l225 -97v-96z" />
    <glyph glyph-name=".notdef.042" unicode="&#x1ebf;" horiz-adv-x="1062" 
d="M1003 106h-2q-88 -53 -192.5 -92t-250.5 -39q-73 0 -162.5 27t-173.5 90.5t-137 173t-53 262.5q0 138 50 243.5t133 176t180.5 104t191.5 33.5q123 0 208 -36.5t137 -95t79 -116t47 -126.5l-534 -379q14 -10 51 -19.5t71 -9.5q86 0 181.5 46t150.5 106zM669 741
q-14 19 -50 28t-67 9q-76 0 -128 -52t-52 -144q0 -17 8 -52v-6zM353 1231v100l393 101v-104zM795 1071l-227 81l-217 -81v81l217 101l216 -101z" />
    <glyph glyph-name=".notdef.130" unicode="&#x1ec0;" horiz-adv-x="1024" 
d="M112 1475h791l59 -390h-465v-153h303v-389h-303v-154h516l-100 -389h-801v1475zM306 1767v93l409 -91v-90zM741 1502l-225 91l-225 -91v91l225 91l225 -91v-91z" />
    <glyph glyph-name=".notdef.043" unicode="&#x1ec1;" horiz-adv-x="1062" 
d="M1003 106h-2q-88 -53 -192.5 -92t-250.5 -39q-73 0 -162.5 27t-173.5 90.5t-137 173t-53 262.5q0 138 50 243.5t133 176t180.5 104t191.5 33.5q123 0 208 -36.5t137 -95t79 -116t47 -126.5l-534 -379q14 -10 51 -19.5t71 -9.5q86 0 181.5 46t150.5 106zM669 741
q-14 19 -50 28t-67 9q-76 0 -128 -52t-52 -144q0 -17 8 -52v-6zM329 1339v94l408 -92v-91zM795 1071l-219 81l-225 -81v81l225 92l225 -92z" />
    <glyph glyph-name=".notdef.132" unicode="&#x1ec2;" horiz-adv-x="1024" 
d="M112 1475h791l59 -390h-465v-153h303v-389h-303v-154h516l-100 -389h-801v1475zM729 1501l-219 104l-219 -104v104l219 105l219 -105v-104zM758 1571q4 20 11 35q13 37 43 73q29 29 33 56q1 28 -16.5 43t-36 17t-36.5 -6.5t-35 -34.5l-64 33q20 35 52.5 57t75.5 25
q67 1 106.5 -35t39.5 -97q-7 -36 -21.5 -57.5t-35.5 -50.5q-14 -23 -27 -51q-3 -8 -5 -21z" />
    <glyph glyph-name=".notdef.041" unicode="&#x1ec3;" horiz-adv-x="1062" 
d="M1003 106h-2q-88 -53 -192.5 -92t-250.5 -39q-73 0 -162.5 27t-173.5 90.5t-137 173t-53 262.5q0 138 50 243.5t133 176t180.5 104t191.5 33.5q123 0 208 -36.5t137 -95t79 -116t47 -126.5l-534 -379q14 -10 51 -19.5t71 -9.5q86 0 181.5 46t150.5 106zM669 741
q-14 19 -50 28t-67 9q-76 0 -128 -52t-52 -144q0 -17 8 -52v-6zM795 1071l-224 81l-220 -81v81l220 121l219 -121zM712 1230q3 19 11 34q13 36 43 72q29 28 33 54q2 28 -16.5 42.5t-36.5 16.5t-36 -6t-35 -34l-64 33q20 34 52.5 55.5t75.5 24.5q67 1 106.5 -34.5t39.5 -95.5
q-7 -35 -21 -56t-37 -50q-14 -22 -25 -50q-4 -8 -6 -20z" />
    <glyph glyph-name=".notdef.106" unicode="&#x1ec4;" horiz-adv-x="1024" 
d="M112 1475h791l59 -390h-465v-153h303v-389h-303v-154h516l-100 -389h-801v1475zM767 1855q-3 -53 -30 -97q-30 -51 -94 -50q-42 0 -109 34q-52 23 -78.5 14t-32.5 -31q-4 -14 -5 -26l-80 20q2 9 5 23q7 31 22.5 61t40.5 48.5t62 18.5q35 0 100 -32q59 -25 85 -25
q16 1 27 17q9 15 11 40zM729 1502l-219 100l-219 -100v100l219 99l219 -99v-100z" />
    <glyph glyph-name=".notdef.040" unicode="&#x1ec5;" horiz-adv-x="1062" 
d="M1003 106h-2q-88 -53 -192.5 -92t-250.5 -39q-73 0 -162.5 27t-173.5 90.5t-137 173t-53 262.5q0 138 50 243.5t133 176t180.5 104t191.5 33.5q123 0 208 -36.5t137 -95t79 -116t47 -126.5l-534 -379q14 -10 51 -19.5t71 -9.5q86 0 181.5 46t150.5 106zM669 741
q-14 19 -50 28t-67 9q-76 0 -128 -52t-52 -144q0 -17 8 -52v-6zM786 1421q-3 -54 -29 -98q-30 -52 -94 -51q-40 0 -107 34q-51 23 -77 14t-31 -32q-4 -14 -5 -26l-79 20q2 10 5 24q7 32 22 62t39.5 48.5t60.5 18.5q35 0 99 -31q58 -26 84 -26q16 1 26 18q9 15 11 39z
M795 1071l-222 81l-222 -81v81l218 117l226 -117v-81z" />
    <glyph glyph-name=".notdef.105" unicode="&#x1ec6;" horiz-adv-x="1024" 
d="M112 1475h791l59 -390h-465v-153h303v-389h-303v-154h516l-100 -389h-801v1475zM735 1496l-219 113l-219 -113v113l219 112l219 -112v-113zM532 -309q-62 0 -105 42t-43 101q0 60 43 101t105 41q61 0 104.5 -41t43.5 -101q0 -59 -43.5 -101t-104.5 -42z" />
    <glyph glyph-name=".notdef.039" unicode="&#x1ec7;" horiz-adv-x="1062" 
d="M1003 106h-2q-88 -53 -192.5 -92t-250.5 -39q-73 0 -162.5 27t-173.5 90.5t-137 173t-53 262.5q0 138 50 243.5t133 176t180.5 104t191.5 33.5q123 0 208 -36.5t137 -95t79 -116t47 -126.5l-534 -379q14 -10 51 -19.5t71 -9.5q86 0 181.5 46t150.5 106zM669 741
q-14 19 -50 28t-67 9q-76 0 -128 -52t-52 -144q0 -17 8 -52v-6zM795 1071l-219 81l-225 -81v81l225 132l225 -132zM574 -286q-50 0 -85 34t-35 82t35 81t85 33t86 -33t36 -81t-36 -82t-86 -34z" />
    <glyph glyph-name=".notdef.102" unicode="&#x1ec8;" horiz-adv-x="569" 
d="M92 1475h385v-1475h-385v1475zM244 1509q5 24 13 43q18 48 55 94q38 37 43 71q2 37 -21 56t-46.5 21.5t-46 -8.5t-45.5 -45l-81 44q25 44 66 72.5t96 30.5q86 2 136.5 -44t50.5 -124q-8 -46 -26 -73t-47 -65q-18 -30 -33 -65q-5 -10 -7 -26z" />
    <glyph glyph-name=".notdef.036" unicode="&#x1ec9;" horiz-adv-x="532" 
d="M88 1061h356v-1061h-356v1061zM220 1092q5 22 12 39q16 44 49 86q33 34 37 65q2 35 -18 52t-41 19t-41 -8t-40 -41l-71 40q22 41 58.5 67t84.5 28q76 2 120.5 -40.5t44.5 -113.5q-8 -42 -24 -67t-41 -59q-15 -28 -29 -60q-4 -10 -6 -24z" />
    <glyph glyph-name=".notdef.100" unicode="&#x1eca;" horiz-adv-x="569" 
d="M92 1475h385v-1475h-385v1475zM284 -278q-50 0 -85 34t-35 82t35 81t85 33t86 -33t36 -81t-36 -82t-86 -34z" />
    <glyph glyph-name=".notdef.034" unicode="&#x1ecb;" horiz-adv-x="532" 
d="M88 1061h356v-1061h-356v1061zM88 1338h356v-211h-356v211zM261 -278q-50 0 -85 34t-35 82t35 81t85 33t86 -33t36 -81t-36 -82t-86 -34z" />
    <glyph glyph-name=".notdef.095" unicode="&#x1ecc;" horiz-adv-x="1593" 
d="M1554 737q0 -157 -59.5 -298.5t-165 -249t-244 -167t-289.5 -59.5q-152 0 -290 59.5t-243.5 167t-165 249t-59.5 298.5q0 158 59.5 299.5t165 249t243.5 166.5t290 59q151 0 289.5 -59t244 -166.5t165 -249t59.5 -299.5zM1160 737q0 74 -27.5 142.5t-78.5 122t-118 83
t-140 29.5q-74 0 -140.5 -28.5t-116.5 -81t-79 -121t-29 -146.5q0 -75 29 -145t79 -122t116.5 -81t140.5 -29q73 0 140 30t118 83t78.5 122t27.5 142zM785 -294q-50 0 -85 34t-35 82t35 81t85 33t86 -33t36 -81t-36 -82t-86 -34z" />
    <glyph glyph-name=".notdef.029" unicode="&#x1ecd;" 
d="M32 530q0 115 43 216.5t120 177t178 118.5t214 43q115 0 216 -43t177 -118.5t119 -177t43 -216.5q0 -112 -43 -213.5t-119 -178.5t-177 -120t-216 -43q-113 0 -214 43t-178 120t-120 178.5t-43 213.5zM388 530q0 -84 57.5 -141t141.5 -57t141.5 57t57.5 141t-57.5 141.5
t-141.5 57.5t-141.5 -57.5t-57.5 -141.5zM574 -286q-50 0 -85 34t-35 82t35 81t85 33t86 -33t36 -81t-36 -82t-86 -34z" />
    <glyph glyph-name=".notdef.097" unicode="&#x1ece;" horiz-adv-x="1593" 
d="M1554 737q0 -157 -59.5 -298.5t-165 -249t-244 -167t-289.5 -59.5q-152 0 -290 59.5t-243.5 167t-165 249t-59.5 298.5q0 158 59.5 299.5t165 249t243.5 166.5t290 59q151 0 289.5 -59t244 -166.5t165 -249t59.5 -299.5zM1160 737q0 74 -27.5 142.5t-78.5 122t-118 83
t-140 29.5q-74 0 -140.5 -28.5t-116.5 -81t-79 -121t-29 -146.5q0 -75 29 -145t79 -122t116.5 -81t140.5 -29q73 0 140 30t118 83t78.5 122t27.5 142zM763 1549q5 25 13 44q17 49 54 95q37 38 42 73q2 37 -20.5 56t-46 21.5t-45.5 -8.5t-44 -45l-79 44q24 45 64.5 73.5
t94.5 31.5q84 2 133.5 -45t49.5 -126q-8 -46 -26 -73.5t-46 -65.5q-17 -31 -32 -66q-5 -11 -7 -27z" />
    <glyph glyph-name=".notdef.031" unicode="&#x1ecf;" 
d="M32 530q0 115 43 216.5t120 177t178 118.5t214 43q115 0 216 -43t177 -118.5t119 -177t43 -216.5q0 -112 -43 -213.5t-119 -178.5t-177 -120t-216 -43q-113 0 -214 43t-178 120t-120 178.5t-43 213.5zM388 530q0 -84 57.5 -141t141.5 -57t141.5 57t57.5 141t-57.5 141.5
t-141.5 57.5t-141.5 -57.5t-57.5 -141.5zM536 1120q5 21 13 38q16 42 50 81q35 33 40 62q2 33 -19.5 49.5t-43 18.5t-42 -7.5t-41.5 -38.5l-74 38q23 38 60.5 63t88.5 27q78 2 124.5 -38.5t46.5 -109.5q-8 -39 -24.5 -62.5t-43.5 -56.5q-16 -26 -29 -56q-4 -10 -7 -24z" />
    <glyph glyph-name=".notdef.092" unicode="&#x1ed0;" horiz-adv-x="1593" 
d="M1554 737q0 -157 -59.5 -298.5t-165 -249t-244 -167t-289.5 -59.5q-152 0 -290 59.5t-243.5 167t-165 249t-59.5 298.5q0 158 59.5 299.5t165 249t243.5 166.5t290 59q151 0 289.5 -59t244 -166.5t165 -249t59.5 -299.5zM1160 737q0 74 -27.5 142.5t-78.5 122t-118 83
t-140 29.5q-74 0 -140.5 -28.5t-116.5 -81t-79 -121t-29 -146.5q0 -75 29 -145t79 -122t116.5 -81t140.5 -29q73 0 140 30t118 83t78.5 122t27.5 142zM592 1706v101l398 101v-104zM1013 1524l-220 102l-219 -102v102l219 102l220 -102v-102z" />
    <glyph glyph-name=".notdef.026" unicode="&#x1ed1;" 
d="M32 530q0 115 43 216.5t120 177t178 118.5t214 43q115 0 216 -43t177 -118.5t119 -177t43 -216.5q0 -112 -43 -213.5t-119 -178.5t-177 -120t-216 -43q-113 0 -214 43t-178 120t-120 178.5t-43 213.5zM388 530q0 -84 57.5 -141t141.5 -57t141.5 57t57.5 141t-57.5 141.5
t-141.5 57.5t-141.5 -57.5t-57.5 -141.5zM386 1251v97l414 98v-100zM821 1071l-216 81l-229 -81v81l229 98l228 -98z" />
    <glyph glyph-name=".notdef.093" unicode="&#x1ed2;" horiz-adv-x="1593" 
d="M1554 737q0 -157 -59.5 -298.5t-165 -249t-244 -167t-289.5 -59.5q-152 0 -290 59.5t-243.5 167t-165 249t-59.5 298.5q0 158 59.5 299.5t165 249t243.5 166.5t290 59q151 0 289.5 -59t244 -166.5t165 -249t59.5 -299.5zM1160 737q0 74 -27.5 142.5t-78.5 122t-118 83
t-140 29.5q-74 0 -140.5 -28.5t-116.5 -81t-79 -121t-29 -146.5q0 -75 29 -145t79 -122t116.5 -81t140.5 -29q73 0 140 30t118 83t78.5 122t27.5 142zM592 1789v104l409 -101v-100zM1018 1524l-219 81l-225 -81v81l225 101l225 -101z" />
    <glyph glyph-name=".notdef.027" unicode="&#x1ed3;" 
d="M32 530q0 115 43 216.5t120 177t178 118.5t214 43q115 0 216 -43t177 -118.5t119 -177t43 -216.5q0 -112 -43 -213.5t-119 -178.5t-177 -120t-216 -43q-113 0 -214 43t-178 120t-120 178.5t-43 213.5zM388 530q0 -84 57.5 -141t141.5 -57t141.5 57t57.5 141t-57.5 141.5
t-141.5 57.5t-141.5 -57.5t-57.5 -141.5zM386 1348v98l409 -96v-95zM821 1071l-219 81l-226 -81v81l226 96l225 -96z" />
    <glyph glyph-name=".notdef.091" unicode="&#x1ed4;" horiz-adv-x="1593" 
d="M1554 737q0 -157 -59.5 -298.5t-165 -249t-244 -167t-289.5 -59.5q-152 0 -290 59.5t-243.5 167t-165 249t-59.5 298.5q0 158 59.5 299.5t165 249t243.5 166.5t290 59q151 0 289.5 -59t244 -166.5t165 -249t59.5 -299.5zM1160 737q0 74 -27.5 142.5t-78.5 122t-118 83
t-140 29.5q-74 0 -140.5 -28.5t-116.5 -81t-79 -121t-29 -146.5q0 -75 29 -145t79 -122t116.5 -81t140.5 -29q73 0 140 30t118 83t78.5 122t27.5 142zM1030 1524l-228 101l-228 -101v101l228 101l228 -101v-101zM1051 1540q4 23 13 41q16 45 52 88q35 35 40 66
q2 35 -20 52.5t-44 20t-43.5 -7.5t-42.5 -42l-77 41q24 41 63 67.5t91 29.5q81 2 129 -41.5t48 -116.5q-9 -43 -26 -68.5t-44 -60.5q-17 -28 -31 -61q-4 -10 -7 -25z" />
    <glyph glyph-name=".notdef.025" unicode="&#x1ed5;" 
d="M32 530q0 115 43 216.5t120 177t178 118.5t214 43q115 0 216 -43t177 -118.5t119 -177t43 -216.5q0 -112 -43 -213.5t-119 -178.5t-177 -120t-216 -43q-113 0 -214 43t-178 120t-120 178.5t-43 213.5zM388 530q0 -84 57.5 -141t141.5 -57t141.5 57t57.5 141t-57.5 141.5
t-141.5 57.5t-141.5 -57.5t-57.5 -141.5zM821 1071l-231 81l-214 -81v81l214 126l214 -126zM813 1113q3 21 11 38q15 41 47 81q31 33 36 61q2 33 -18 49t-39.5 18.5t-39 -7t-38.5 -39.5l-69 38q22 38 57 62.5t81 27.5q73 2 116 -38t43 -108q-8 -40 -23 -63.5t-40 -55.5
q-15 -26 -28 -57q-3 -9 -6 -23z" />
    <glyph glyph-name=".notdef.090" unicode="&#x1ed6;" horiz-adv-x="1593" 
d="M1554 737q0 -157 -59.5 -298.5t-165 -249t-244 -167t-289.5 -59.5q-152 0 -290 59.5t-243.5 167t-165 249t-59.5 298.5q0 158 59.5 299.5t165 249t243.5 166.5t290 59q151 0 289.5 -59t244 -166.5t165 -249t59.5 -299.5zM1160 737q0 74 -27.5 142.5t-78.5 122t-118 83
t-140 29.5q-74 0 -140.5 -28.5t-116.5 -81t-79 -121t-29 -146.5q0 -75 29 -145t79 -122t116.5 -81t140.5 -29q73 0 140 30t118 83t78.5 122t27.5 142zM1046 1871q-3 -50 -30 -91q-32 -49 -98 -47q-42 0 -111 31q-54 22 -80.5 13.5t-32.5 -29.5q-5 -13 -6 -25l-82 19
q2 9 5 22q8 30 23.5 58t41.5 45.5t63 17.5t102 -29q61 -24 89 -24q16 1 27 16q9 14 11 37zM1024 1524l-225 94l-225 -94v94l225 95l225 -95v-94z" />
    <glyph glyph-name=".notdef.024" unicode="&#x1ed7;" 
d="M32 530q0 115 43 216.5t120 177t178 118.5t214 43q115 0 216 -43t177 -118.5t119 -177t43 -216.5q0 -112 -43 -213.5t-119 -178.5t-177 -120t-216 -43q-113 0 -214 43t-178 120t-120 178.5t-43 213.5zM388 530q0 -84 57.5 -141t141.5 -57t141.5 57t57.5 141t-57.5 141.5
t-141.5 57.5t-141.5 -57.5t-57.5 -141.5zM850 1410q-3 -53 -29 -96q-31 -52 -94 -51q-41 0 -108 33q-51 24 -77 14.5t-32 -31.5q-4 -14 -5 -26l-79 20q2 10 5 23q7 32 22 61.5t40 48t61 18.5q35 0 99 -30q58 -26 85 -26q15 1 26 17q9 15 11 39zM821 1071l-227 81l-218 -81
v81l218 100l217 -100z" />
    <glyph glyph-name=".notdef.089" unicode="&#x1ed8;" horiz-adv-x="1593" 
d="M1554 737q0 -157 -59.5 -298.5t-165 -249t-244 -167t-289.5 -59.5q-152 0 -290 59.5t-243.5 167t-165 249t-59.5 298.5q0 158 59.5 299.5t165 249t243.5 166.5t290 59q151 0 289.5 -59t244 -166.5t165 -249t59.5 -299.5zM1160 737q0 74 -27.5 142.5t-78.5 122t-118 83
t-140 29.5q-74 0 -140.5 -28.5t-116.5 -81t-79 -121t-29 -146.5q0 -75 29 -145t79 -122t116.5 -81t140.5 -29q73 0 140 30t118 83t78.5 122t27.5 142zM1035 1524l-231 107l-230 -107v107l230 107l231 -107v-107zM769 -317q-54 0 -91 36.5t-37 86.5q0 52 37 87.5t91 35.5
q53 0 90.5 -35.5t37.5 -87.5q0 -50 -37.5 -86.5t-90.5 -36.5z" />
    <glyph glyph-name=".notdef.023" unicode="&#x1ed9;" 
d="M32 530q0 115 43 216.5t120 177t178 118.5t214 43q115 0 216 -43t177 -118.5t119 -177t43 -216.5q0 -112 -43 -213.5t-119 -178.5t-177 -120t-216 -43q-113 0 -214 43t-178 120t-120 178.5t-43 213.5zM822 1071l-217 81l-228 -81v81l228 126l228 -126zM388 530
q0 -84 57.5 -141t141.5 -57t141.5 57t57.5 141t-57.5 141.5t-141.5 57.5t-141.5 -57.5t-57.5 -141.5zM569 -278q-48 0 -82 33.5t-34 81.5q0 50 34 82.5t82 32.5q49 0 83.5 -32.5t34.5 -82.5q0 -48 -34.5 -81.5t-83.5 -33.5z" />
    <glyph glyph-name=".notdef.075" unicode="&#x1eda;" horiz-adv-x="1593" 
d="M1160 737q0 74 -27.5 142.5t-78.5 122t-118 83t-140 29.5q-74 0 -140.5 -28.5t-116.5 -81t-79 -121t-29 -146.5q0 -75 29 -145t79 -122t116.5 -81t140.5 -29q73 0 140 30t118 83t78.5 122t27.5 142zM592 1524v111l415 112v-115zM1411 1187q49 -69 84 -150
q59 -142 59 -300q0 -157 -59.5 -298.5t-165 -249t-244 -167t-289.5 -59.5q-152 0 -290 59.5t-243.5 167t-165 249t-59.5 298.5q0 158 59.5 299.5t165 249t243.5 166.5t290 59q151 0 290 -59q112 -48 202 -127l49 204h166z" />
    <glyph glyph-name=".notdef.009" unicode="&#x1edb;" 
d="M388 530q0 -84 57.5 -141t141.5 -57t141.5 57t57.5 141t-57.5 141.5t-141.5 57.5t-141.5 -57.5t-57.5 -141.5zM386 1114v111l403 113v-115zM1038 855q36 -50 61 -108q43 -102 43 -217q0 -112 -43 -213.5t-119 -178.5t-177 -120t-216 -43q-113 0 -214 43t-178 120
t-120 178.5t-43 213.5q0 115 43 216.5t120 177t178 118.5t214 43q115 0 216 -43q58 -25 107 -60l34 140h166z" />
    <glyph glyph-name=".notdef.076" unicode="&#x1edc;" horiz-adv-x="1593" 
d="M1160 737q0 74 -27.5 142.5t-78.5 122t-118 83t-140 29.5q-74 0 -140.5 -28.5t-116.5 -81t-79 -121t-29 -146.5q0 -75 29 -145t79 -122t116.5 -81t140.5 -29q73 0 140 30t118 83t78.5 122t27.5 142zM592 1635v118l409 -115v-114zM1411 1187q49 -69 84 -150
q59 -142 59 -300q0 -157 -59.5 -298.5t-165 -249t-244 -167t-289.5 -59.5q-152 0 -290 59.5t-243.5 167t-165 249t-59.5 298.5q0 158 59.5 299.5t165 249t243.5 166.5t290 59q151 0 290 -59q112 -48 202 -127l49 204h166z" />
    <glyph glyph-name=".notdef.010" unicode="&#x1edd;" 
d="M388 530q0 -84 57.5 -141t141.5 -57t141.5 57t57.5 141t-57.5 141.5t-141.5 57.5t-141.5 -57.5t-57.5 -141.5zM386 1228v121l403 -118v-117zM1038 855q36 -50 61 -108q43 -102 43 -217q0 -112 -43 -213.5t-119 -178.5t-177 -120t-216 -43q-113 0 -214 43t-178 120
t-120 178.5t-43 213.5q0 115 43 216.5t120 177t178 118.5t214 43q115 0 216 -43q58 -25 107 -60l34 140h166z" />
    <glyph glyph-name=".notdef.074" unicode="&#x1ede;" horiz-adv-x="1593" 
d="M1160 737q0 74 -27.5 142.5t-78.5 122t-118 83t-140 29.5q-74 0 -140.5 -28.5t-116.5 -81t-79 -121t-29 -146.5q0 -75 29 -145t79 -122t116.5 -81t140.5 -29q73 0 140 30t118 83t78.5 122t27.5 142zM763 1549q5 24 13 43q17 48 54 94q37 37 42 71q2 37 -20.5 56t-46 21.5
t-45.5 -8.5t-44 -45l-79 44q24 44 64.5 72.5t94.5 30.5q84 2 133.5 -44t49.5 -124q-8 -46 -26 -73t-46 -65q-17 -30 -32 -65q-5 -10 -7 -26zM1411 1187q49 -69 84 -150q59 -142 59 -300q0 -157 -59.5 -298.5t-165 -249t-244 -167t-289.5 -59.5q-152 0 -290 59.5t-243.5 167
t-165 249t-59.5 298.5q0 158 59.5 299.5t165 249t243.5 166.5t290 59q151 0 290 -59q112 -48 202 -127l49 204h166z" />
    <glyph glyph-name=".notdef.008" unicode="&#x1edf;" 
d="M388 530q0 -84 57.5 -141t141.5 -57t141.5 57t57.5 141t-57.5 141.5t-141.5 57.5t-141.5 -57.5t-57.5 -141.5zM554 1118q4 20 12 36q16 40 50 78q35 31 39 59q3 31 -18.5 46.5t-43 17.5t-42 -7t-41.5 -37l-74 36q23 37 60.5 60.5t88.5 25.5q78 2 124.5 -36.5t46.5 -103.5
q-8 -38 -24.5 -60.5t-43.5 -53.5q-16 -25 -29 -54q-5 -9 -7 -22zM1038 855q36 -50 61 -108q43 -102 43 -217q0 -112 -43 -213.5t-119 -178.5t-177 -120t-216 -43q-113 0 -214 43t-178 120t-120 178.5t-43 213.5q0 115 43 216.5t120 177t178 118.5t214 43q115 0 216 -43
q58 -25 107 -60l34 140h166z" />
    <glyph glyph-name=".notdef.073" unicode="&#x1ee0;" horiz-adv-x="1593" 
d="M1160 737q0 74 -27.5 142.5t-78.5 122t-118 83t-140 29.5q-74 0 -140.5 -28.5t-116.5 -81t-79 -121t-29 -146.5q0 -75 29 -145t79 -122t116.5 -81t140.5 -29q73 0 140 30t118 83t78.5 122t27.5 142zM1056 1720q-4 -64 -35 -117q-35 -63 -109 -61q-49 0 -126 40
q-61 29 -91.5 17.5t-37.5 -38.5q-4 -16 -5 -31l-93 24q2 12 6 28q8 39 25.5 75t47 58.5t71.5 22.5q41 0 116 -37q68 -32 99 -32q18 2 31 21q10 18 13 48zM1411 1187q49 -69 84 -150q59 -142 59 -300q0 -157 -59.5 -298.5t-165 -249t-244 -167t-289.5 -59.5q-152 0 -290 59.5
t-243.5 167t-165 249t-59.5 298.5q0 158 59.5 299.5t165 249t243.5 166.5t290 59q151 0 290 -59q112 -48 202 -127l49 204h166z" />
    <glyph glyph-name=".notdef.007" unicode="&#x1ee1;" 
d="M388 530q0 -84 57.5 -141t141.5 -57t141.5 57t57.5 141t-57.5 141.5t-141.5 57.5t-141.5 -57.5t-57.5 -141.5zM815 1288q-3 -56 -31 -101q-32 -54 -98 -53q-43 0 -113 35q-54 25 -81.5 15t-33.5 -33q-4 -14 -5 -27l-83 21q2 10 5 24q7 34 23 64.5t42 50t64 19.5
q37 0 104 -32q61 -27 89 -27q17 1 28 18q9 15 11 41zM1038 855q36 -50 61 -108q43 -102 43 -217q0 -112 -43 -213.5t-119 -178.5t-177 -120t-216 -43q-113 0 -214 43t-178 120t-120 178.5t-43 213.5q0 115 43 216.5t120 177t178 118.5t214 43q115 0 216 -43q58 -25 107 -60
l34 140h166z" />
    <glyph glyph-name=".notdef.072" unicode="&#x1ee2;" horiz-adv-x="1593" 
d="M1160 737q0 74 -27.5 142.5t-78.5 122t-118 83t-140 29.5q-74 0 -140.5 -28.5t-116.5 -81t-79 -121t-29 -146.5q0 -75 29 -145t79 -122t116.5 -81t140.5 -29q73 0 140 30t118 83t78.5 122t27.5 142zM1411 1187q49 -69 84 -150q59 -142 59 -300q0 -157 -59.5 -298.5
t-165 -249t-244 -167t-289.5 -59.5q-152 0 -290 59.5t-243.5 167t-165 249t-59.5 298.5q0 158 59.5 299.5t165 249t243.5 166.5t290 59q151 0 290 -59q112 -48 202 -127l49 204h166zM773 -309q-52 0 -88 35t-36 84q0 51 36 85t88 34t88.5 -34t36.5 -85q0 -49 -36.5 -84
t-88.5 -35z" />
    <glyph glyph-name=".notdef.006" unicode="&#x1ee3;" 
d="M388 530q0 -84 57.5 -141t141.5 -57t141.5 57t57.5 141t-57.5 141.5t-141.5 57.5t-141.5 -57.5t-57.5 -141.5zM1038 855q36 -50 61 -108q43 -102 43 -217q0 -112 -43 -213.5t-119 -178.5t-177 -120t-216 -43q-113 0 -214 43t-178 120t-120 178.5t-43 213.5
q0 115 43 216.5t120 177t178 118.5t214 43q115 0 216 -43q58 -25 107 -60l34 140h166zM574 -286q-50 0 -85 34t-35 82t35 81t85 33t86 -33t36 -81t-36 -82t-86 -34z" />
    <glyph glyph-name=".notdef.084" unicode="&#x1ee4;" 
d="M81 1475h385v-938q0 -82 27.5 -129.5t93.5 -47.5q65 0 93 47.5t28 129.5v938h385v-996q0 -258 -129 -387t-377 -129t-377 129t-129 387v996zM567 -286q-50 0 -85 34t-35 82t35 81t85 33t86 -33t36 -81t-36 -82t-86 -34z" />
    <glyph glyph-name=".notdef.018" unicode="&#x1ee5;" horiz-adv-x="1099" 
d="M1012 0h-357v98q-55 -59 -118.5 -91t-141.5 -32q-59 0 -113.5 16.5t-98.5 53.5t-69.5 96.5t-25.5 139.5v780h356v-582q0 -65 22.5 -106t86.5 -41q59 0 80.5 42t21.5 105v582h357v-1061zM535 -286q-50 0 -85 34t-35 82t35 81t85 33t86 -33t36 -81t-36 -82t-86 -34z" />
    <glyph glyph-name=".notdef.086" unicode="&#x1ee6;" 
d="M81 1475h385v-938q0 -82 27.5 -129.5t93.5 -47.5q65 0 93 47.5t28 129.5v938h385v-996q0 -258 -129 -387t-377 -129t-377 129t-129 387v996zM542 1498q5 24 14 43q17 48 54 94q37 37 42 71q2 37 -20.5 56t-46 21.5t-45.5 -8.5t-44 -45l-80 44q25 44 65 72.5t94 30.5
q85 2 134.5 -44t49.5 -124q-8 -46 -26 -73t-46 -65q-17 -30 -32 -65q-5 -10 -7 -26z" />
    <glyph glyph-name=".notdef.020" unicode="&#x1ee7;" horiz-adv-x="1099" 
d="M1012 0h-357v98q-55 -59 -118.5 -91t-141.5 -32q-59 0 -113.5 16.5t-98.5 53.5t-69.5 96.5t-25.5 139.5v780h356v-582q0 -65 22.5 -106t86.5 -41q59 0 80.5 42t21.5 105v582h357v-1061zM520 1092q5 22 12 39q16 44 49 86q33 34 37 65q2 35 -18 52t-41 19t-41 -8t-40 -41
l-71 40q22 41 58.5 67t84.5 28q76 2 120.5 -40.5t44.5 -113.5q-8 -42 -24 -67t-41 -59q-15 -28 -29 -60q-4 -10 -6 -24z" />
    <glyph glyph-name=".notdef.081" unicode="&#x1ee8;" 
d="M422 1524v108l414 110v-112zM1093 1179v-700q0 -258 -129 -387t-377 -129t-377 129t-129 387v996h385v-938q0 -82 27.5 -129.5t93.5 -47.5q65 0 93 47.5t28 129.5v938h362l13 54h166l-94 -350h-62z" />
    <glyph glyph-name=".notdef.015" unicode="&#x1ee9;" horiz-adv-x="1099" 
d="M386 1114v111l414 113v-115zM1012 772v-772h-357v98q-55 -59 -118.5 -91t-141.5 -32q-59 0 -113.5 16.5t-98.5 53.5t-69.5 96.5t-25.5 139.5v780h356v-582q0 -65 22.5 -106t86.5 -41q59 0 80.5 42t21.5 105v582h307l15 61h166l-94 -350h-37z" />
    <glyph glyph-name=".notdef.082" unicode="&#x1eea;" 
d="M350 1624v106l414 -104v-102zM1093 1179v-700q0 -258 -129 -387t-377 -129t-377 129t-129 387v996h385v-938q0 -82 27.5 -129.5t93.5 -47.5q65 0 93 47.5t28 129.5v938h362l13 54h166l-94 -350h-62z" />
    <glyph glyph-name=".notdef.016" unicode="&#x1eeb;" horiz-adv-x="1099" 
d="M357 1220v112l398 -110v-108zM1012 772v-772h-357v98q-55 -59 -118.5 -91t-141.5 -32q-59 0 -113.5 16.5t-98.5 53.5t-69.5 96.5t-25.5 139.5v780h356v-582q0 -65 22.5 -106t86.5 -41q59 0 80.5 42t21.5 105v582h307l15 61h166l-94 -350h-37z" />
    <glyph glyph-name=".notdef.080" unicode="&#x1eec;" 
d="M550 1504q5 24 14 44q17 50 55 97q37 38 42 73q2 38 -21 57.5t-46.5 22t-46 -9t-44.5 -45.5l-81 44q25 46 66 75.5t96 31.5q86 2 136 -45.5t50 -128.5q-8 -47 -26 -74.5t-47 -66.5q-17 -31 -32 -67q-5 -11 -8 -27zM1093 1179v-700q0 -258 -129 -387t-377 -129t-377 129
t-129 387v996h385v-938q0 -82 27.5 -129.5t93.5 -47.5q65 0 93 47.5t28 129.5v938h362l13 54h166l-94 -350h-62z" />
    <glyph glyph-name=".notdef.014" unicode="&#x1eed;" horiz-adv-x="1099" 
d="M515 1087q5 22 12 39q16 44 49 86q33 35 37 65q2 35 -18 52t-41 19t-41 -8t-40 -41l-71 40q22 41 58.5 67t84.5 28q76 2 120.5 -40.5t44.5 -113.5q-8 -42 -24 -67t-41 -59q-15 -28 -29 -60q-4 -10 -6 -24zM1012 772v-772h-357v98q-55 -59 -118.5 -91t-141.5 -32
q-59 0 -113.5 16.5t-98.5 53.5t-69.5 96.5t-25.5 139.5v780h356v-582q0 -65 22.5 -106t86.5 -41q59 0 80.5 42t21.5 105v582h307l15 61h166l-94 -350h-37z" />
    <glyph glyph-name=".notdef.079" unicode="&#x1eee;" 
d="M823 1720q-3 -64 -31 -117q-32 -63 -99 -61q-43 0 -113 40q-54 29 -81 17.5t-34 -38.5q-4 -16 -5 -31l-83 24q2 12 5 28q7 39 23 75t42.5 58.5t64.5 22.5q37 0 103 -37q62 -32 90 -32q16 2 28 21q9 18 11 48zM1093 1179v-700q0 -258 -129 -387t-377 -129t-377 129
t-129 387v996h385v-938q0 -82 27.5 -129.5t93.5 -47.5q65 0 93 47.5t28 129.5v938h362l13 54h166l-94 -350h-62z" />
    <glyph glyph-name=".notdef.013" unicode="&#x1eef;" horiz-adv-x="1099" 
d="M793 1303q-3 -61 -29 -110q-30 -59 -94 -58q-41 0 -107 38q-52 27 -77.5 16.5t-31.5 -35.5q-4 -16 -5 -30l-79 23q2 11 5 26q7 37 22 71t40 55t61 21q35 0 98 -35q59 -30 85 -30q15 2 26 20q9 17 11 45zM1012 772v-772h-357v98q-55 -59 -118.5 -91t-141.5 -32
q-59 0 -113.5 16.5t-98.5 53.5t-69.5 96.5t-25.5 139.5v780h356v-582q0 -65 22.5 -106t86.5 -41q59 0 80.5 42t21.5 105v582h307l15 61h166l-94 -350h-37z" />
    <glyph glyph-name=".notdef.078" unicode="&#x1ef0;" 
d="M1093 1179v-700q0 -258 -129 -387t-377 -129t-377 129t-129 387v996h385v-938q0 -82 27.5 -129.5t93.5 -47.5q65 0 93 47.5t28 129.5v938h362l13 54h166l-94 -350h-62zM574 -294q-50 0 -85 34t-35 82t35 81t85 33t86 -33t36 -81t-36 -82t-86 -34z" />
    <glyph glyph-name=".notdef.012" unicode="&#x1ef1;" horiz-adv-x="1099" 
d="M1012 772v-772h-357v98q-55 -59 -118.5 -91t-141.5 -32q-59 0 -113.5 16.5t-98.5 53.5t-69.5 96.5t-25.5 139.5v780h356v-582q0 -65 22.5 -106t86.5 -41q59 0 80.5 42t21.5 105v582h307l15 61h166l-94 -350h-37zM542 -286q-50 0 -85 34t-35 82t35 81t85 33t86 -33t36 -81
t-36 -82t-86 -34z" />
    <glyph glyph-name=".notdef.071" unicode="&#x1ef2;" horiz-adv-x="1212" 
d="M0 1475h434l172 -361l172 361h434l-413 -826v-649h-385v649zM388 1630v123l425 -121v-119z" />
    <glyph glyph-name=".notdef.005" unicode="&#x1ef3;" horiz-adv-x="1062" 
d="M4 1061h393l152 -514h4l121 514h385l-424 -1421h-385l123 417zM386 1223v115l414 -113v-111z" />
    <glyph glyph-name=".notdef.067" unicode="&#x1ef4;" horiz-adv-x="1212" 
d="M0 1475h434l172 -361l172 361h434l-413 -826v-649h-385v649zM605 -270q-50 0 -85 34t-35 82t35 81t85 33t86 -33t36 -81t-36 -82t-86 -34z" />
    <glyph glyph-name=".notdef.001" unicode="&#x1ef5;" horiz-adv-x="1062" 
d="M4 1061h393l152 -514h4l121 514h385l-424 -1421h-385l123 417zM849 -333q-50 0 -85 34t-35 82t35 81t85 33t86 -33t36 -81t-36 -82t-86 -34z" />
    <glyph glyph-name=".notdef.069" unicode="&#x1ef6;" horiz-adv-x="1212" 
d="M0 1475h434l172 -361l172 361h434l-413 -826v-649h-385v649zM571 1481q5 25 14 45q18 50 55 98q37 39 42 74q3 39 -20 58.5t-47 22t-46 -8.5t-45 -46l-81 45q25 46 66 75.5t96 32.5q86 3 136.5 -45.5t50.5 -130.5q-8 -48 -26.5 -76t-46.5 -67q-18 -32 -33 -68
q-5 -12 -7 -28z" />
    <glyph glyph-name=".notdef.003" unicode="&#x1ef7;" horiz-adv-x="1062" 
d="M4 1061h393l152 -514h4l121 514h385l-424 -1421h-385l123 417zM504 1076q5 22 13 39q16 44 51 86q35 34 40 65q2 35 -19.5 52t-43.5 19t-43 -8t-42 -41l-75 40q23 41 61.5 67t89.5 28q80 2 127 -40.5t47 -113.5q-8 -42 -25 -67t-44 -59q-16 -28 -30 -60q-4 -10 -7 -24z
" />
    <glyph glyph-name=".notdef.068" unicode="&#x1ef8;" horiz-adv-x="1212" 
d="M0 1475h434l172 -361l172 361h434l-413 -826v-649h-385v649zM850 1730q-3 -68 -32 -123q-33 -66 -102 -64q-45 0 -118 42q-56 30 -84.5 18t-34.5 -40q-4 -17 -6 -33l-86 25q2 13 5 30q8 41 24.5 79t43.5 61.5t67 23.5q38 0 108 -39q64 -33 92 -33q17 1 29 22q10 19 12 50
z" />
    <glyph glyph-name=".notdef.002" unicode="&#x1ef9;" horiz-adv-x="1062" 
d="M4 1061h393l152 -514h4l121 514h385l-424 -1421h-385l123 417zM770 1308q-3 -63 -30 -113q-31 -61 -96 -59q-42 0 -110 39q-53 27 -79.5 16t-32.5 -37q-4 -16 -5 -30l-81 23q2 12 5 28q7 37 22.5 72t41 56.5t62.5 21.5q36 0 101 -36q60 -31 87 -31q16 2 27 21q9 17 11 46
z" />
    <glyph glyph-name="quoteleft" unicode="&#x2018;" horiz-adv-x="495" 
d="M-8 758l193 717h319l-172 -717h-340z" />
    <glyph glyph-name="quoteright" unicode="&#x2019;" horiz-adv-x="495" 
d="M504 1475l-193 -717h-319l172 717h340z" />
    <glyph glyph-name="quotedblleft" unicode="&#x201c;" horiz-adv-x="833" 
d="M383 758l189 717h311l-172 -717h-328zM-49 758l188 717h312l-172 -717h-328z" />
    <glyph glyph-name="quotedblright" unicode="&#x201d;" horiz-adv-x="833" 
d="M883 1475l-189 -717h-311l172 717h328zM451 1475l-189 -717h-311l172 717h328z" />
    <glyph glyph-name="bullet" unicode="&#x2022;" horiz-adv-x="1707" 
 />
    <glyph glyph-name="ellipsis" unicode="&#x2026;" horiz-adv-x="2048" 
d="M163 373h356v-373h-356v373zM845 373h356v-373h-356v373zM1527 373h356v-373h-356v373z" />
    <glyph glyph-name="NULL" horiz-adv-x="0" 
 />
    <glyph glyph-name="Eth" horiz-adv-x="1516" 
 />
    <glyph glyph-name="ugrave" horiz-adv-x="582" 
 />
    <glyph glyph-name="uacute" horiz-adv-x="580" 
 />
    <glyph glyph-name="yacute" horiz-adv-x="629" 
 />
  </font>
</defs>
</svg>
